<?xml version="1.0" encoding="UTF-8" standalone="no"?>
<svg
   xmlns:dc="http://purl.org/dc/elements/1.1/"
   xmlns:cc="http://creativecommons.org/ns#"
   xmlns:rdf="http://www.w3.org/1999/02/22-rdf-syntax-ns#"
   xmlns:svg="http://www.w3.org/2000/svg"
   xmlns="http://www.w3.org/2000/svg"
   xmlns:sodipodi="http://sodipodi.sourceforge.net/DTD/sodipodi-0.dtd"
   xmlns:inkscape="http://www.inkscape.org/namespaces/inkscape"
   width="100mm"
   height="100mm"
   viewBox="0 0 100 100"
   version="1.1"
   id="svg8"
   inkscape:version="1.0.1 (3bc2e813f5, 2020-09-07)"
   sodipodi:docname="rss.svg">
  <defs
     id="defs2" />
  <sodipodi:namedview
     id="base"
     pagecolor="#ffffff"
     bordercolor="#666666"
     borderopacity="1.0"
     inkscape:pageopacity="0.0"
     inkscape:pageshadow="2"
     inkscape:zoom="1.4"
     inkscape:cx="158.7308"
     inkscape:cy="225.09167"
     inkscape:document-units="mm"
     inkscape:current-layer="g945"
     showgrid="false"
     inkscape:window-width="1920"
     inkscape:window-height="1051"
     inkscape:window-x="-9"
     inkscape:window-y="-9"
     inkscape:window-maximized="1"
     inkscape:document-rotation="0" />
  <metadata
     id="metadata5">
    <rdf:RDF>
      <cc:Work
         rdf:about="">
        <dc:format>image/svg+xml</dc:format>
        <dc:type
           rdf:resource="http://purl.org/dc/dcmitype/StillImage" />
        <dc:title></dc:title>
      </cc:Work>
    </rdf:RDF>
  </metadata>
  <g
     inkscape:label="Layer 1"
     inkscape:groupmode="layer"
     id="layer1"
     transform="translate(0,-197)">
    <g
       id="g945"
       transform="matrix(1.2775157,0,0,1.2775157,-27.5161,103.31663)">
      <circle
         style="fill:#efefef;stroke-width:0.414215"
         id="path838"
         cx="44.764404"
         cy="130.87881"
         r="5.4735608" />
      <g
         id="g845"
         transform="matrix(0.15288462,0,0,0.15288462,21.538757,73.332461)">
        <path
           d="M 512,256 C 512,397.4 397.4,512 256,512 114.6,512 0,397.4 0,256 0,114.6 114.6,0 256,0 397.4,0 512,114.6 512,256 Z"
           fill="#f26522"
           id="path842"
           style="fill:#ed4d90;fill-opacity:1" />
        <path
           d="m 161.6,373.9 c -19.3,0 -34.9,-15.6 -34.9,-34.9 0,-19.3 15.6,-34.9 34.9,-34.9 19.3,0 34.9,15.6 34.9,34.9 0,19.2 -15.6,34.9 -34.9,34.9 z m 83.4,0 c -0.7,-65 -53.4,-117.7 -118.4,-118.4 v -51.7 c 93.7,0.7 169.4,76.5 170.1,170.1 z m 87.6,0 C 332.4,318.9 310.9,267.1 272,228.2 233.1,189.3 181.5,167.8 126.6,167.6 v -51.7 c 142.2,0.5 257.4,115.8 257.7,258 z"
           fill="#ffffff"
           id="rss-circle-icon_1_" />
      </g>
    </g>
  </g>
</svg>
