<svg xmlns="http://www.w3.org/2000/svg" viewBox="0 0 972.16 920.2" width="972.16" height="920.2" style="background-color: white;"><defs><style>@import url('https://fonts.googleapis.com/css2?family=Caveat+Brush&amp;family=Source+Code+Pro&amp;family=Source+Sans+Pro&amp;family=Crimson+Pro&amp;display=block');</style></defs><g text-align="center" text-anchor="middle" transform="translate(40.00, 713.94) rotate(0.00, 182.00, 18.02)"><g id="5220f8d8-8582-4b8c-0f23-4fff1d8f668f_svg" class="tl-centered-g"><path d="M-0.37,12.33 Q-0.58,9.46 -0.65,7.54 T1.09,3.17 9.97,0.03 25.06,-0.76 41.41,-0.87 58.15,-0.86 74.98,-0.82 91.84,-0.77 108.71,-0.72 125.57,-0.66 142.44,-0.61 159.31,-0.56 176.18,-0.54 193.04,-0.58 209.91,-0.65 226.78,-0.72 243.65,-0.79 260.51,-0.86 277.38,-0.94 294.25,-1.01 311.12,-1.08 327.98,-1.15 344.88,-1.22 357.37,0.39 362.55,4.20 363.87,8.48 363.98,12.58 363.90,16.47 363.93,20.31 364.05,24.14 364.13,28.06 362.32,32.54 353.44,35.71 338.38,36.52 322.06,36.65 305.36,36.65 288.56,36.62 271.74,36.58 254.91,36.55 238.08,36.51 221.25,36.47 204.42,36.43 187.58,36.42 170.75,36.48 153.92,36.56 137.09,36.65 120.26,36.73 103.43,36.82 86.60,36.90 69.77,36.99 52.94,37.07 36.10,37.16 19.25,37.24 6.79,35.64 1.58,31.84 0.16,27.53 -0.06,23.40 -0.09,19.47 -0.23,15.59 -0.47,11.06 -0.55,8.24 -0.41,7.79 -0.13,7.42 0.26,7.15 0.71,7.02 1.17,7.04 1.61,7.21 1.97,7.51 2.21,7.91 2.32,8.36 2.27,8.83 2.08,9.26 1.76,9.60 1.35,9.82 0.89,9.90 0.43,9.83 0.01,9.62 -0.31,9.28 -0.51,8.86 -0.57,8.39 -0.47,7.93 -0.23,7.53 0.12,7.23 0.55,7.05 1.02,7.02 1.47,7.14 1.86,7.40 2.15,7.77 2.30,8.21 2.34,8.44 2.27,11.04 2.14,15.56 2.10,19.40 2.30,23.19 2.74,26.71 3.71,29.85 7.66,32.65 19.29,34.01 36.10,34.04 52.93,34.08 69.76,34.12 86.59,34.16 103.43,34.20 120.26,34.24 137.09,34.27 153.92,34.31 170.75,34.35 187.58,34.36 204.41,34.31 221.24,34.22 238.07,34.14 254.90,34.05 271.73,33.97 288.55,33.88 305.35,33.78 322.02,33.66 338.23,33.41 352.40,32.92 359.82,31.11 361.08,27.81 361.31,24.09 361.56,20.27 361.71,16.47 361.62,12.73 361.28,9.24 360.39,6.15 356.49,3.37 344.83,2.01 327.99,1.96 311.12,1.91 294.25,1.86 277.38,1.81 260.52,1.75 243.65,1.70 226.78,1.65 209.91,1.60 193.05,1.55 176.18,1.52 159.31,1.57 142.44,1.64 125.58,1.71 108.71,1.78 91.84,1.85 74.99,1.93 58.16,2.01 41.45,2.12 25.20,2.35 11.00,2.83 3.58,4.59 2.39,7.73 2.27,10.87 2.17,12.46 2.10,12.76 1.96,13.03 1.76,13.26 1.51,13.44 1.23,13.55 0.93,13.59 0.62,13.56 0.33,13.45 0.08,13.28 -0.12,13.05 -0.27,12.78 -0.35,12.49 Z" fill="#1d1d1d" stroke="#1d1d1d" stroke-width="2" pointer-events="none"/></g><text font-size="28px" font-family="Caveat Brush" font-weight="normal" line-height="28px" letter-spacing="-0.03em" text-align="center" dominant-baseline="mathematical" alignment-baseline="mathematical" text-anchor="middle" transform="translate(141, -0.9800000000000004)" fill="#1d1d1d" transform-origin="center center"><tspan y="14px" x="41">Bare OS
</tspan></text></g><g text-align="center" text-anchor="middle" transform="translate(40.29, 621.98) rotate(0.00, 182.71, 39.00)"><g id="19fef9de-d608-4c1f-2f9b-74ad15bc0df7_svg" class="tl-centered-g"><path d="M90.15,0.12 Q102.73,0.18 110.62,0.21 T126.81,0.27 143.52,0.33 160.36,0.39 177.23,0.42 194.12,0.39 211.00,0.32 227.88,0.26 244.77,0.20 261.65,0.13 278.54,0.07 295.42,0.00 312.30,-0.06 329.19,-0.12 346.10,-0.18 358.70,1.58 363.98,7.68 365.30,16.72 365.48,26.22 365.51,35.80 365.67,45.40 365.91,55.01 366.13,64.68 364.38,72.78 355.49,76.94 340.36,78.01 323.92,78.19 307.13,78.20 290.23,78.17 273.31,78.12 256.38,78.08 239.46,78.03 222.53,77.99 205.60,77.94 188.67,77.92 171.74,77.97 154.81,78.05 137.88,78.13 120.96,78.20 104.03,78.28 87.10,78.36 70.17,78.44 53.24,78.52 36.31,78.59 19.36,78.67 6.73,76.91 1.49,70.78 0.28,61.71 0.23,52.17 0.33,42.55 0.30,32.90 0.20,23.25 0.11,13.54 1.94,5.42 10.84,1.27 25.93,0.21 42.33,0.05 59.09,0.05 75.94,0.10 92.81,0.15 109.69,0.21 126.58,0.27 143.46,0.33 160.35,0.39 177.23,0.42 194.11,0.39 213.89,0.32 225.40,0.32 225.75,0.44 226.05,0.66 226.25,0.97 226.35,1.32 226.33,1.69 226.20,2.03 225.96,2.31 225.64,2.50 225.28,2.58 224.92,2.54 224.58,2.39 224.31,2.14 224.14,1.81 224.08,1.45 224.14,1.08 224.31,0.76 224.58,0.50 224.92,0.35 225.28,0.31 225.64,0.39 225.96,0.58 226.20,0.86 226.33,1.20 226.35,1.57 226.25,1.92 226.05,2.23 225.75,2.45 225.40,2.57 225.22,2.60 213.89,2.57 194.11,2.51 177.23,2.48 160.35,2.52 143.46,2.58 126.58,2.64 109.69,2.71 92.81,2.77 75.94,2.84 59.10,2.92 42.37,3.04 26.13,3.32 11.90,4.01 4.46,6.69 3.20,13.66 2.94,23.27 2.67,32.92 2.52,42.55 2.60,52.11 2.98,61.33 3.96,69.43 7.82,74.24 19.41,75.44 36.31,75.48 53.24,75.52 70.17,75.57 87.10,75.62 104.03,75.66 120.95,75.71 137.88,75.76 154.81,75.80 171.74,75.85 188.67,75.86 205.60,75.82 222.53,75.74 239.45,75.66 256.38,75.58 273.31,75.50 290.23,75.42 307.11,75.33 323.88,75.20 340.16,74.90 354.43,74.20 361.86,71.53 363.04,64.59 363.16,55.03 363.30,45.42 363.32,35.83 363.11,26.31 362.60,17.13 361.52,9.07 357.62,4.27 346.05,3.05 329.19,2.99 312.30,2.93 295.42,2.87 278.54,2.81 261.65,2.75 244.77,2.69 227.88,2.63 211.00,2.57 194.12,2.51 177.23,2.48 160.36,2.52 143.52,2.58 126.81,2.64 110.62,2.71 96.44,2.77 89.99,2.78 89.68,2.71 89.39,2.56 89.15,2.34 88.97,2.08 88.85,1.78 88.82,1.46 88.85,1.14 88.97,0.84 89.15,0.58 89.39,0.37 89.67,0.22 89.99,0.14 Z" fill="#1d1d1d" stroke="#1d1d1d" stroke-width="2" pointer-events="none"/></g><text font-size="28px" font-family="Caveat Brush" font-weight="normal" line-height="28px" letter-spacing="-0.03em" text-align="center" dominant-baseline="mathematical" alignment-baseline="mathematical" text-anchor="middle" transform="translate(114.20500000000001, 20)" fill="#1d1d1d" transform-origin="center center"><tspan y="14px" x="68.5">Deps (python)
</tspan></text></g><g id="706c72a6-5e7c-4200-2055-6a270aac51f0_svg" class="tl-centered-g" transform="translate(125.70, 552.98) rotate(0.00, 42.50, 26.50)"><path d="M-0.37,17.75 Q-0.54,13.15 -0.60,10.18 T1.13,4.49 7.71,1.01 17.68,0.12 28.19,-0.01 38.87,-0.09 49.59,-0.33 60.33,-0.65 71.11,-0.96 79.87,0.63 84.10,5.46 85.04,11.76 85.00,18.12 84.87,24.43 84.87,30.74 84.95,37.06 85.01,43.44 83.21,49.46 76.64,52.98 66.75,53.77 56.32,53.77 45.73,53.72 35.09,53.82 24.45,54.00 13.76,54.17 5.07,52.51 0.84,47.71 -0.18,41.52 -0.24,35.30 -0.19,29.12 -0.28,22.95 -0.45,15.72 -0.50,11.34 -0.35,10.90 -0.06,10.52 0.32,10.26 0.78,10.14 1.24,10.17 1.68,10.34 2.03,10.64 2.27,11.04 2.37,11.50 2.32,11.97 2.12,12.39 1.80,12.73 1.39,12.95 0.92,13.02 0.46,12.94 0.05,12.72 -0.27,12.38 -0.47,11.96 -0.51,11.49 -0.41,11.04 -0.17,10.64 0.19,10.34 0.62,10.16 1.09,10.14 1.54,10.27 1.92,10.53 2.21,10.90 2.35,11.35 2.39,11.58 2.29,15.72 2.09,22.95 1.99,29.11 2.13,35.21 2.51,41.07 3.28,46.21 6.19,49.75 13.84,51.08 24.45,51.26 35.09,51.45 45.72,51.54 56.27,51.40 66.52,51.04 75.47,50.37 80.62,48.14 81.93,43.25 82.21,37.01 82.49,30.71 82.68,24.41 82.63,18.17 82.34,12.17 81.63,6.92 78.76,3.36 71.06,2.13 60.36,2.09 49.63,2.04 38.91,2.09 28.27,2.36 17.93,2.85 8.90,3.61 3.73,5.81 2.46,10.34 2.29,15.45 2.17,17.91 2.10,18.20 1.95,18.47 1.75,18.70 1.50,18.88 1.21,18.98 0.91,19.02 0.60,18.98 0.32,18.87 0.07,18.70 -0.14,18.47 -0.28,18.20 -0.35,17.90 Z" fill="#1d1d1d" stroke="#1d1d1d" stroke-width="2" pointer-events="none"/></g><text font-size="28px" font-family="Caveat Brush" font-weight="normal" line-height="28px" letter-spacing="-0.03em" text-align="center" dominant-baseline="mathematical" alignment-baseline="mathematical" text-anchor="middle" fill="#1d1d1d" transform="translate(147.20, 561.98) rotate(0.00, 22.50, 19.00)"><tspan y="14px" x="22.5">App
</tspan></text><text font-size="28px" font-family="Caveat Brush" font-weight="normal" line-height="28px" letter-spacing="-0.03em" text-align="center" dominant-baseline="mathematical" alignment-baseline="mathematical" text-anchor="middle" fill="#1d1d1d" transform="translate(119.19, 481.17) rotate(0.00, 49.50, 19.00)"><tspan y="14px" x="49.5">Container
</tspan></text><g text-align="center" text-anchor="middle" transform="translate(16.00, 800.48) rotate(0.00, 470.08, 51.86)"><g id="637980ed-afbb-491f-143e-926a19097475_svg" class="tl-centered-g"><path d="M854.11,103.59 Q841.94,103.57 834.31,103.56 T818.65,103.54 802.49,103.53 786.21,103.51 769.89,103.50 753.56,103.48 737.24,103.47 720.91,103.45 704.58,103.44 688.25,103.42 671.93,103.41 655.60,103.39 639.27,103.38 622.94,103.36 606.62,103.35 590.29,103.33 573.96,103.32 557.63,103.30 541.30,103.29 524.98,103.27 508.65,103.26 492.32,103.24 475.99,103.24 459.67,103.26 443.34,103.29 427.01,103.32 410.68,103.35 394.35,103.38 378.03,103.41 361.70,103.44 345.37,103.47 329.04,103.50 312.72,103.53 296.39,103.56 280.06,103.59 263.73,103.62 247.40,103.65 231.08,103.68 214.75,103.71 198.42,103.74 182.09,103.78 165.77,103.81 149.44,103.84 133.11,103.87 116.78,103.90 100.45,103.93 84.13,103.96 67.80,103.99 51.47,104.02 35.14,104.05 18.79,104.08 6.51,102.25 1.33,94.72 0.10,82.61 -0.00,69.60 0.03,56.37 -0.08,43.08 -0.26,29.77 -0.43,16.42 1.35,6.01 10.01,1.23 24.61,-0.03 40.47,-0.27 56.66,-0.32 72.93,-0.32 89.23,-0.31 105.54,-0.29 121.84,-0.28 138.15,-0.26 154.45,-0.24 170.76,-0.22 187.07,-0.21 203.37,-0.19 219.68,-0.17 235.98,-0.15 252.29,-0.14 268.60,-0.12 284.90,-0.10 301.21,-0.08 317.51,-0.07 333.82,-0.05 350.13,-0.03 366.43,-0.01 382.74,0.00 399.04,0.02 415.35,0.04 431.66,0.06 447.96,0.07 464.27,0.08 480.57,0.06 496.88,0.03 513.19,0.01 529.49,-0.02 545.80,-0.05 562.10,-0.08 578.41,-0.11 594.72,-0.14 611.02,-0.16 627.33,-0.19 643.63,-0.22 659.94,-0.25 676.24,-0.28 692.55,-0.30 708.86,-0.33 725.16,-0.36 741.47,-0.39 757.77,-0.42 774.08,-0.44 790.39,-0.47 806.69,-0.50 823.00,-0.53 839.30,-0.56 855.61,-0.59 871.92,-0.61 888.22,-0.64 904.53,-0.67 920.86,-0.69 933.12,1.12 938.36,8.64 939.74,20.73 940.02,33.73 940.17,46.94 940.45,60.21 940.81,73.50 941.15,86.83 939.48,97.24 930.84,102.02 916.23,103.28 900.35,103.53 884.15,103.58 867.85,103.58 851.53,103.57 835.20,103.56 818.88,103.54 802.55,103.53 786.22,103.51 769.89,103.50 753.56,103.48 737.24,103.47 720.91,103.45 704.58,103.44 688.25,103.42 671.93,103.41 655.60,103.39 639.27,103.38 622.94,103.36 606.62,103.35 590.29,103.33 573.96,103.32 557.63,103.30 541.30,103.29 524.98,103.27 508.65,103.26 492.32,103.24 475.99,103.24 459.67,103.26 440.54,103.29 429.42,103.28 429.10,103.17 428.83,102.97 428.64,102.69 428.55,102.36 428.57,102.02 428.69,101.71 428.91,101.45 429.20,101.28 429.53,101.21 429.86,101.24 430.17,101.39 430.41,101.62 430.57,101.92 430.63,102.25 430.57,102.58 430.41,102.88 430.17,103.11 429.86,103.25 429.53,103.29 429.20,103.22 428.91,103.04 428.69,102.79 428.57,102.47 428.55,102.14 428.64,101.81 428.83,101.53 429.10,101.33 429.42,101.22 429.58,101.19 440.54,101.20 459.66,101.21 475.99,101.22 492.32,101.20 508.65,101.17 524.98,101.14 541.30,101.10 557.63,101.07 573.96,101.04 590.29,101.01 606.61,100.98 622.94,100.95 639.27,100.92 655.60,100.89 671.92,100.86 688.25,100.83 704.58,100.80 720.91,100.77 737.24,100.74 753.56,100.71 769.89,100.68 786.22,100.65 802.55,100.62 818.87,100.59 835.20,100.56 851.53,100.52 867.84,100.49 884.13,100.44 900.30,100.35 915.99,100.06 929.75,99.27 936.96,96.05 938.05,86.80 938.06,73.54 938.08,60.24 937.98,46.98 937.65,33.81 937.02,21.06 935.84,9.86 931.99,3.73 920.81,2.57 904.53,2.56 888.22,2.54 871.92,2.53 855.61,2.51 839.31,2.49 823.00,2.47 806.69,2.46 790.39,2.44 774.08,2.42 757.78,2.40 741.47,2.39 725.16,2.37 708.86,2.35 692.55,2.33 676.25,2.32 659.94,2.30 643.63,2.28 627.33,2.26 611.02,2.25 594.72,2.23 578.41,2.21 562.10,2.19 545.80,2.18 529.49,2.16 513.19,2.14 496.88,2.12 480.57,2.11 464.27,2.10 447.96,2.12 431.66,2.15 415.35,2.17 399.04,2.20 382.74,2.23 366.43,2.26 350.13,2.29 333.82,2.32 317.51,2.34 301.21,2.37 284.90,2.40 268.60,2.43 252.29,2.46 235.98,2.48 219.68,2.51 203.37,2.54 187.07,2.57 170.76,2.60 154.46,2.63 138.15,2.65 121.84,2.68 105.54,2.71 89.23,2.74 72.94,2.77 56.67,2.82 40.53,2.91 24.86,3.19 11.11,3.98 3.88,7.21 2.67,16.49 2.48,29.77 2.29,43.08 2.21,56.36 2.37,69.55 2.83,82.32 3.87,93.53 7.65,99.67 18.84,100.81 35.14,100.82 51.47,100.83 67.80,100.85 84.13,100.86 100.45,100.88 116.78,100.89 133.11,100.91 149.44,100.92 165.76,100.94 182.09,100.95 198.42,100.97 214.75,100.98 231.08,101.00 247.40,101.01 263.73,101.03 280.06,101.05 296.39,101.06 312.71,101.08 329.04,101.09 345.37,101.11 361.70,101.12 378.03,101.14 394.35,101.15 410.68,101.17 427.01,101.18 443.34,101.20 459.66,101.21 475.99,101.22 492.32,101.20 508.65,101.17 524.98,101.14 541.30,101.10 557.63,101.07 573.96,101.04 590.29,101.01 606.61,100.98 622.94,100.95 639.27,100.92 655.60,100.89 671.92,100.86 688.25,100.83 704.58,100.80 720.91,100.77 737.24,100.74 753.56,100.71 769.89,100.68 786.20,100.65 802.49,100.62 818.65,100.59 834.31,100.56 848.02,100.53 854.29,100.54 854.65,100.62 854.97,100.79 855.25,101.04 855.46,101.34 855.59,101.68 855.63,102.05 855.59,102.41 855.46,102.76 855.25,103.06 854.97,103.30 854.65,103.47 854.29,103.56 Z" fill="#1d1d1d" stroke="#1d1d1d" stroke-width="2" pointer-events="none"/></g><text font-size="28px" font-family="Caveat Brush" font-weight="normal" line-height="28px" letter-spacing="-0.03em" text-align="center" dominant-baseline="mathematical" alignment-baseline="mathematical" text-anchor="middle" transform="translate(380.58, 32.86)" fill="#1d1d1d" transform-origin="center center"><tspan y="14px" x="89.5">Container Runtime
</tspan></text></g><g id="2e5637de-10e7-4985-1a5f-a950e5eaa5bb_svg" class="tl-centered-g" transform="translate(106.00, 517.48) rotate(0.00, 59.20, 130.47)"><g pointer-events="none" stroke="#1d1d1d" stroke-width="4.23" stroke-linecap="round"><line x1="2.11" y1="2.11" x2="116.27" y2="2.11" stroke-dasharray="0.03 6.68" stroke-dashoffset="0"/><line x1="116.27" y1="2.11" x2="116.27" y2="258.83" stroke-dasharray="0.03 6.55" stroke-dashoffset="0"/><line x1="116.27" y1="258.83" x2="2.11" y2="258.83" stroke-dasharray="0.03 6.68" stroke-dashoffset="0"/><line x1="2.11" y1="258.83" x2="2.11" y2="2.11" stroke-dasharray="0.03 6.55" stroke-dashoffset="0"/></g></g><g id="89f7fcea-fe7d-498c-3f09-ba73cfc6764d_svg" class="tl-centered-g" transform="translate(265.70, 552.98) rotate(0.00, 42.50, 26.50)"><path d="M26.93,53.84 Q18.98,54.01 13.95,54.09 T5.68,52.42 1.52,47.57 0.42,41.27 0.25,34.93 0.18,28.61 -0.04,22.30 -0.34,15.99 -0.61,9.60 1.05,3.56 7.63,0.04 17.61,-0.72 28.16,-0.69 38.86,-0.61 49.62,-0.67 60.38,-0.82 71.20,-0.95 79.96,0.73 84.22,5.58 85.26,11.86 85.34,18.20 85.32,24.49 85.44,30.78 85.64,37.07 85.81,43.43 84.08,49.44 77.53,52.97 67.62,53.75 57.18,53.74 46.57,53.67 35.91,53.76 23.42,53.93 16.03,53.97 15.59,53.82 15.21,53.54 14.95,53.15 14.83,52.70 14.85,52.23 15.03,51.80 15.33,51.44 15.73,51.20 16.19,51.10 16.65,51.15 17.08,51.35 17.42,51.67 17.64,52.09 17.71,52.55 17.63,53.01 17.41,53.42 17.07,53.74 16.65,53.94 16.18,53.99 15.73,53.89 15.33,53.64 15.03,53.29 14.85,52.85 14.83,52.39 14.95,51.94 15.22,51.55 15.59,51.27 16.03,51.12 16.27,51.08 23.43,51.19 35.92,51.39 46.56,51.49 57.13,51.37 67.40,51.02 76.37,50.36 81.50,48.14 82.74,43.29 82.90,37.07 83.07,30.79 83.14,24.51 82.98,18.30 82.57,12.32 81.77,7.08 78.83,3.49 71.10,2.14 60.37,1.93 49.61,1.70 38.87,1.58 28.19,1.68 17.83,2.01 8.78,2.64 3.63,4.85 2.46,9.71 2.40,15.94 2.33,22.25 2.36,28.55 2.62,34.79 3.11,40.80 3.96,46.06 6.81,49.66 14.05,51.00 22.96,51.19 27.09,51.30 27.39,51.38 27.66,51.52 27.89,51.72 28.06,51.98 28.17,52.26 28.20,52.57 28.17,52.87 28.06,53.16 27.88,53.41 27.65,53.61 27.38,53.75 27.09,53.82 Z" fill="#1d1d1d" stroke="#1d1d1d" stroke-width="2" pointer-events="none"/></g><text font-size="28px" font-family="Caveat Brush" font-weight="normal" line-height="28px" letter-spacing="-0.03em" text-align="center" dominant-baseline="mathematical" alignment-baseline="mathematical" text-anchor="middle" fill="#1d1d1d" transform="translate(287.20, 561.98) rotate(0.00, 22.50, 19.00)"><tspan y="14px" x="22.5">App
</tspan></text><g id="7af0ba28-8732-4609-0a69-255b0a286459_svg" class="tl-centered-g" transform="translate(246.00, 517.48) rotate(0.00, 59.20, 130.47)"><g pointer-events="none" stroke="#1d1d1d" stroke-width="4.23" stroke-linecap="round"><line x1="2.11" y1="2.11" x2="116.27" y2="2.11" stroke-dasharray="0.03 6.68" stroke-dashoffset="0"/><line x1="116.27" y1="2.11" x2="116.27" y2="258.83" stroke-dasharray="0.03 6.55" stroke-dashoffset="0"/><line x1="116.27" y1="258.83" x2="2.11" y2="258.83" stroke-dasharray="0.03 6.68" stroke-dashoffset="0"/><line x1="2.11" y1="258.83" x2="2.11" y2="2.11" stroke-dasharray="0.03 6.55" stroke-dashoffset="0"/></g></g><g text-align="center" text-anchor="middle" transform="translate(455.32, 621.98) rotate(0.00, 224.39, 39.00)"><g id="ca5e307b-8c32-4028-09ef-decc317bc71d_svg" class="tl-centered-g"><path d="M363.04,78.22 Q350.93,78.19 343.33,78.18 T327.74,78.16 311.66,78.13 295.44,78.11 279.20,78.09 262.95,78.07 246.69,78.04 230.44,78.05 214.18,78.09 197.93,78.17 181.67,78.24 165.42,78.32 149.17,78.39 132.91,78.46 116.66,78.54 100.40,78.61 84.15,78.68 67.89,78.76 51.64,78.83 35.38,78.91 19.10,78.97 6.89,77.22 1.72,71.09 0.44,62.00 0.29,52.44 0.28,42.79 0.14,33.13 -0.08,23.45 -0.28,13.72 1.47,5.58 10.11,1.40 24.66,0.30 40.44,0.09 56.57,0.05 72.78,0.06 89.01,0.07 105.25,0.09 121.49,0.10 137.74,0.12 153.98,0.14 170.22,0.16 186.47,0.18 202.71,0.19 218.95,0.19 235.19,0.13 251.44,0.05 267.68,-0.02 283.92,-0.10 300.16,-0.18 316.41,-0.26 332.65,-0.34 348.89,-0.42 365.13,-0.49 381.38,-0.57 397.62,-0.65 413.86,-0.73 430.13,-0.80 442.33,0.95 447.52,7.08 448.84,16.19 449.04,25.77 449.09,35.43 449.28,45.11 449.55,54.81 449.80,64.55 448.07,72.71 439.44,76.90 424.87,77.99 409.08,78.19 392.95,78.23 376.72,78.22 360.48,78.20 344.22,78.18 327.97,78.16 311.71,78.13 295.46,78.11 279.20,78.09 262.95,78.07 246.69,78.04 230.44,78.05 214.18,78.09 195.15,78.17 184.06,78.19 183.72,78.07 183.44,77.86 183.23,77.56 183.14,77.22 183.16,76.86 183.29,76.53 183.52,76.25 183.83,76.07 184.18,75.99 184.53,76.03 184.86,76.18 185.12,76.42 185.28,76.74 185.34,77.09 185.28,77.45 185.12,77.76 184.86,78.01 184.53,78.16 184.18,78.20 183.83,78.12 183.52,77.94 183.29,77.67 183.16,77.33 183.14,76.98 183.23,76.63 183.43,76.33 183.72,76.12 184.06,76.00 184.24,75.97 195.14,75.98 214.18,76.00 230.44,76.00 246.69,75.95 262.95,75.87 279.20,75.80 295.46,75.73 311.71,75.65 327.97,75.58 344.22,75.50 360.47,75.43 376.72,75.35 392.93,75.26 409.03,75.13 424.66,74.84 438.36,74.15 445.54,71.47 446.71,64.48 446.80,54.83 446.91,45.14 446.91,35.46 446.67,25.86 446.14,16.59 445.05,8.46 441.25,3.63 430.09,2.44 413.87,2.43 397.62,2.41 381.38,2.39 365.14,2.37 348.90,2.35 332.65,2.34 316.41,2.32 300.17,2.30 283.93,2.28 267.68,2.27 251.44,2.25 235.20,2.23 218.95,2.24 202.71,2.29 186.47,2.37 170.23,2.45 153.98,2.53 137.74,2.60 121.50,2.68 105.26,2.76 89.02,2.84 72.79,2.92 56.58,3.02 40.49,3.15 24.87,3.44 11.19,4.14 4.00,6.82 2.81,13.81 2.66,23.44 2.51,33.11 2.46,42.77 2.66,52.35 3.14,61.60 4.19,69.72 7.98,74.54 19.15,75.73 35.38,75.75 51.63,75.77 67.89,75.80 84.14,75.82 100.40,75.84 116.65,75.86 132.91,75.89 149.16,75.91 165.42,75.93 181.67,75.95 197.93,75.98 214.18,76.00 230.44,76.00 246.69,75.95 262.94,75.87 279.20,75.80 295.44,75.73 311.65,75.65 327.74,75.58 343.33,75.51 356.98,75.44 363.21,75.42 363.53,75.50 363.83,75.66 364.09,75.88 364.28,76.16 364.40,76.48 364.44,76.81 364.40,77.14 364.28,77.46 364.09,77.74 363.84,77.96 363.54,78.12 363.21,78.20 Z" fill="#1d1d1d" stroke="#1d1d1d" stroke-width="2" pointer-events="none"/></g><text font-size="28px" font-family="Caveat Brush" font-weight="normal" line-height="28px" letter-spacing="-0.03em" text-align="center" dominant-baseline="mathematical" alignment-baseline="mathematical" text-anchor="middle" transform="translate(166.39, 20)" fill="#1d1d1d" transform-origin="center center"><tspan y="14px" x="58">Deps (node)
</tspan></text></g><g id="9a1381e8-6343-459f-033e-2c21fbfdca28_svg" class="tl-centered-g" transform="translate(495.70, 552.98) rotate(0.00, 42.50, 26.50)"><path d="M-0.58,17.05 Q-0.75,12.51 -0.81,9.59 T0.93,3.94 7.51,0.49 17.49,-0.33 28.02,-0.39 38.71,-0.40 49.45,-0.57 60.20,-0.82 71.00,-1.05 79.76,0.58 83.98,5.43 84.94,11.73 84.92,18.09 84.79,24.41 84.80,30.73 84.90,37.05 84.97,43.44 83.16,49.47 76.58,52.93 66.67,53.58 56.21,53.43 45.60,53.23 34.94,53.17 24.26,53.19 13.55,53.20 4.85,51.45 0.63,46.65 -0.39,40.52 -0.45,34.37 -0.40,28.28 -0.49,22.18 -0.66,15.05 -0.71,10.72 -0.56,10.28 -0.27,9.91 0.11,9.65 0.57,9.52 1.03,9.55 1.47,9.73 1.82,10.03 2.06,10.43 2.16,10.89 2.11,11.35 1.91,11.78 1.59,12.11 1.18,12.33 0.71,12.41 0.25,12.33 -0.16,12.11 -0.48,11.77 -0.68,11.34 -0.72,10.88 -0.62,10.42 -0.38,10.02 -0.02,9.72 0.41,9.55 0.88,9.53 1.33,9.65 1.71,9.92 2.00,10.29 2.14,10.73 2.18,10.97 2.08,15.05 1.88,22.18 1.78,28.26 1.92,34.28 2.30,40.07 3.07,45.14 5.99,48.68 13.68,50.11 24.31,50.45 34.97,50.80 45.62,51.04 56.20,51.06 66.47,50.85 75.45,50.31 80.60,48.14 81.89,43.26 82.15,37.01 82.43,30.70 82.60,24.40 82.55,18.15 82.24,12.15 81.52,6.89 78.64,3.32 70.92,2.04 60.21,1.93 49.47,1.81 38.73,1.79 28.08,1.98 17.73,2.40 8.69,3.10 3.51,5.26 2.26,9.75 2.08,14.79 1.96,17.21 1.89,17.51 1.74,17.78 1.54,18.01 1.29,18.18 1.00,18.29 0.70,18.32 0.39,18.29 0.11,18.18 -0.14,18.00 -0.34,17.77 -0.49,17.50 -0.56,17.20 Z" fill="#1d1d1d" stroke="#1d1d1d" stroke-width="2" pointer-events="none"/></g><text font-size="28px" font-family="Caveat Brush" font-weight="normal" line-height="28px" letter-spacing="-0.03em" text-align="center" dominant-baseline="mathematical" alignment-baseline="mathematical" text-anchor="middle" fill="#1d1d1d" transform="translate(517.20, 561.98) rotate(0.00, 22.50, 19.00)"><tspan y="14px" x="22.5">App
</tspan></text><g id="3ef6fb72-7c5c-4653-1870-e5f4a0de84bd_svg" class="tl-centered-g" transform="translate(476.00, 517.48) rotate(0.00, 59.20, 130.47)"><g pointer-events="none" stroke="#1d1d1d" stroke-width="4.23" stroke-linecap="round"><line x1="2.11" y1="2.11" x2="116.27" y2="2.11" stroke-dasharray="0.03 6.68" stroke-dashoffset="0"/><line x1="116.27" y1="2.11" x2="116.27" y2="258.83" stroke-dasharray="0.03 6.55" stroke-dashoffset="0"/><line x1="116.27" y1="258.83" x2="2.11" y2="258.83" stroke-dasharray="0.03 6.68" stroke-dashoffset="0"/><line x1="2.11" y1="258.83" x2="2.11" y2="2.11" stroke-dasharray="0.03 6.55" stroke-dashoffset="0"/></g></g><g id="20e50a19-39bb-44b9-0118-4dd76ec5a8f3_svg" class="tl-centered-g" transform="translate(635.70, 552.98) rotate(0.00, 42.50, 26.50)"><path d="M85.25,35.50 Q85.43,40.04 85.49,42.97 T83.75,48.62 77.17,52.02 67.21,52.74 56.70,52.69 46.02,52.59 35.30,52.64 24.57,52.77 13.79,52.90 5.05,51.21 0.80,46.45 -0.24,40.36 -0.31,34.24 -0.28,28.18 -0.40,22.13 -0.59,16.07 -0.75,9.94 0.98,4.07 7.56,0.59 17.53,-0.18 28.05,-0.17 38.74,-0.11 49.46,-0.20 60.21,-0.37 70.99,-0.53 79.74,1.13 83.99,5.90 85.02,12.03 85.09,18.17 85.05,24.27 85.15,30.37 85.34,37.50 85.39,41.83 85.24,42.27 84.96,42.64 84.57,42.91 84.12,43.03 83.65,43.00 83.22,42.83 82.86,42.53 82.62,42.13 82.52,41.67 82.57,41.21 82.77,40.78 83.09,40.44 83.50,40.22 83.96,40.15 84.43,40.22 84.84,40.44 85.16,40.78 85.36,41.21 85.41,41.67 85.30,42.13 85.06,42.53 84.71,42.83 84.27,43.00 83.81,43.03 83.35,42.90 82.97,42.64 82.69,42.27 82.54,41.83 82.50,41.59 82.59,37.50 82.78,30.37 82.87,24.29 82.72,18.27 82.33,12.49 81.55,7.42 78.62,3.90 70.90,2.56 60.20,2.37 49.46,2.17 38.74,2.08 28.09,2.20 17.76,2.55 8.72,3.20 3.56,5.38 2.31,10.09 2.15,16.07 1.98,22.12 1.90,28.16 2.05,34.14 2.45,39.89 3.24,44.93 6.17,48.44 13.89,49.80 24.58,50.03 35.31,50.27 46.02,50.40 56.66,50.32 67.00,50.01 76.02,49.40 81.18,47.29 82.43,42.81 82.60,37.77 82.71,35.35 82.78,35.05 82.93,34.78 83.13,34.55 83.38,34.38 83.67,34.27 83.97,34.23 84.27,34.27 84.56,34.38 84.81,34.55 85.01,34.78 85.16,35.05 85.23,35.35 Z" fill="#1d1d1d" stroke="#1d1d1d" stroke-width="2" pointer-events="none"/></g><text font-size="28px" font-family="Caveat Brush" font-weight="normal" line-height="28px" letter-spacing="-0.03em" text-align="center" dominant-baseline="mathematical" alignment-baseline="mathematical" text-anchor="middle" fill="#1d1d1d" transform="translate(657.20, 561.98) rotate(0.00, 22.50, 19.00)"><tspan y="14px" x="22.5">App
</tspan></text><g id="d8c80bba-12a0-4802-1396-12a0c368f340_svg" class="tl-centered-g" transform="translate(616.00, 517.48) rotate(0.00, 59.20, 130.47)"><g pointer-events="none" stroke="#1d1d1d" stroke-width="4.23" stroke-linecap="round"><line x1="2.11" y1="2.11" x2="116.27" y2="2.11" stroke-dasharray="0.03 6.68" stroke-dashoffset="0"/><line x1="116.27" y1="2.11" x2="116.27" y2="258.83" stroke-dasharray="0.03 6.55" stroke-dashoffset="0"/><line x1="116.27" y1="258.83" x2="2.11" y2="258.83" stroke-dasharray="0.03 6.68" stroke-dashoffset="0"/><line x1="2.11" y1="258.83" x2="2.11" y2="2.11" stroke-dasharray="0.03 6.55" stroke-dashoffset="0"/></g></g><g id="a206d68d-1202-4980-3189-640b7e277b36_svg" class="tl-centered-g" transform="translate(765.70, 552.98) rotate(0.00, 42.50, 26.50)"><path d="M59.03,-0.29 Q67.00,-0.48 72.06,-0.57 T80.35,1.08 84.48,5.85 85.47,11.98 85.51,18.14 85.46,24.25 85.55,30.36 85.72,36.47 85.86,42.65 84.12,48.55 77.54,52.07 67.58,52.92 57.06,53.00 46.39,53.03 35.67,53.21 24.94,53.47 14.16,53.72 5.41,52.11 1.17,47.32 0.17,41.14 0.15,34.92 0.23,28.75 0.17,22.58 0.02,16.42 -0.09,10.18 1.67,4.24 8.24,0.73 18.19,-0.07 28.67,-0.09 39.32,-0.06 50.01,-0.18 62.55,-0.38 69.97,-0.45 70.41,-0.30 70.78,-0.02 71.05,0.37 71.17,0.82 71.15,1.29 70.98,1.72 70.67,2.08 70.27,2.32 69.82,2.42 69.35,2.37 68.93,2.17 68.59,1.85 68.37,1.44 68.29,0.98 68.37,0.52 68.58,0.10 68.92,-0.22 69.35,-0.41 69.81,-0.47 70.27,-0.37 70.67,-0.13 70.97,0.23 71.15,0.66 71.17,1.13 71.05,1.58 70.79,1.97 70.41,2.25 69.97,2.40 69.74,2.44 62.55,2.36 50.02,2.19 39.33,2.13 28.72,2.28 18.42,2.66 9.41,3.34 4.25,5.56 2.98,10.34 2.77,16.44 2.54,22.60 2.41,28.75 2.52,34.84 2.87,40.70 3.62,45.83 6.52,49.35 14.23,50.63 24.92,50.73 35.65,50.83 46.36,50.84 57.00,50.63 67.33,50.19 76.36,49.47 81.53,47.24 82.79,42.49 82.97,36.46 83.17,30.36 83.27,24.27 83.14,18.23 82.77,12.43 82.02,7.34 79.22,3.83 71.97,2.52 63.02,2.36 58.88,2.25 58.58,2.18 58.31,2.04 58.08,1.83 57.90,1.58 57.80,1.30 57.76,0.99 57.79,0.69 57.90,0.40 58.08,0.15 58.30,-0.05 58.58,-0.19 58.87,-0.27 Z" fill="#1d1d1d" stroke="#1d1d1d" stroke-width="2" pointer-events="none"/></g><text font-size="28px" font-family="Caveat Brush" font-weight="normal" line-height="28px" letter-spacing="-0.03em" text-align="center" dominant-baseline="mathematical" alignment-baseline="mathematical" text-anchor="middle" fill="#1d1d1d" transform="translate(787.20, 561.98) rotate(0.00, 22.50, 19.00)"><tspan y="14px" x="22.5">App
</tspan></text><g id="6652a30b-9fb8-4937-195b-d51278b34ace_svg" class="tl-centered-g" transform="translate(746.00, 517.48) rotate(0.00, 59.20, 130.47)"><g pointer-events="none" stroke="#1d1d1d" stroke-width="4.23" stroke-linecap="round"><line x1="2.11" y1="2.11" x2="116.27" y2="2.11" stroke-dasharray="0.03 6.68" stroke-dashoffset="0"/><line x1="116.27" y1="2.11" x2="116.27" y2="258.83" stroke-dasharray="0.03 6.55" stroke-dashoffset="0"/><line x1="116.27" y1="258.83" x2="2.11" y2="258.83" stroke-dasharray="0.03 6.68" stroke-dashoffset="0"/><line x1="2.11" y1="258.83" x2="2.11" y2="2.11" stroke-dasharray="0.03 6.55" stroke-dashoffset="0"/></g></g><g text-align="center" text-anchor="middle" transform="translate(456.70, 713.94) rotate(0.00, 224.91, 18.02)"><g id="3b1768ef-e594-48fd-239a-1a1d70b76fa4_svg" class="tl-centered-g"><path d="M363.23,36.32 Q351.08,36.28 343.45,36.25 T327.80,36.21 311.66,36.16 295.39,36.12 279.09,36.07 262.78,36.03 246.46,35.98 230.15,35.96 213.84,35.99 197.53,36.04 181.21,36.09 164.90,36.14 148.59,36.20 132.27,36.25 115.96,36.30 99.65,36.35 83.33,36.40 67.02,36.45 50.71,36.50 34.40,36.56 18.06,36.60 5.91,34.98 0.83,31.25 -0.47,27.10 -0.58,23.17 -0.49,19.45 -0.52,15.78 -0.64,12.12 -0.71,8.37 1.10,3.99 9.78,0.84 24.40,0.03 40.22,-0.10 56.40,-0.12 72.67,-0.10 88.97,-0.08 105.27,-0.05 121.58,-0.02 137.88,0.00 154.19,0.03 170.49,0.06 186.80,0.08 203.10,0.11 219.41,0.11 235.71,0.07 252.02,0.00 268.32,-0.07 284.63,-0.14 300.93,-0.21 317.24,-0.28 333.54,-0.35 349.85,-0.41 366.15,-0.48 382.46,-0.55 398.76,-0.62 415.07,-0.69 431.40,-0.76 443.54,0.85 448.63,4.61 449.96,8.81 450.09,12.80 450.03,16.59 450.10,20.33 450.25,24.06 450.36,27.88 448.56,32.30 439.88,35.46 425.25,36.26 409.43,36.38 393.24,36.37 376.96,36.34 360.65,36.30 344.34,36.25 328.03,36.21 311.72,36.16 295.40,36.12 279.09,36.07 262.78,36.03 246.47,35.98 230.15,35.96 213.84,35.99 194.73,36.04 183.61,36.04 183.27,35.93 182.98,35.71 182.78,35.41 182.69,35.07 182.71,34.71 182.84,34.38 183.07,34.11 183.38,33.92 183.73,33.84 184.08,33.88 184.41,34.03 184.67,34.28 184.83,34.60 184.89,34.95 184.83,35.30 184.67,35.62 184.41,35.86 184.08,36.01 183.73,36.05 183.38,35.98 183.07,35.79 182.84,35.52 182.71,35.19 182.69,34.83 182.78,34.48 182.98,34.19 183.27,33.97 183.61,33.86 183.79,33.83 194.73,33.85 213.84,33.89 230.15,33.91 246.46,33.89 262.78,33.84 279.09,33.78 295.40,33.73 311.72,33.68 328.03,33.63 344.34,33.58 360.65,33.53 376.96,33.47 393.23,33.41 409.39,33.32 425.10,33.11 438.84,32.65 446.06,30.87 447.31,27.65 447.50,24.03 447.73,20.31 447.85,16.61 447.73,12.97 447.37,9.58 446.48,6.58 442.66,3.83 431.35,2.49 415.07,2.46 398.77,2.44 382.46,2.41 366.16,2.38 349.85,2.36 333.55,2.33 317.24,2.30 300.94,2.27 284.63,2.25 268.33,2.22 252.02,2.19 235.72,2.17 219.41,2.16 203.11,2.21 186.80,2.28 170.50,2.35 154.19,2.42 137.89,2.48 121.58,2.55 105.28,2.62 88.97,2.69 72.68,2.77 56.41,2.84 40.26,2.95 24.55,3.18 10.82,3.65 3.60,5.43 2.33,8.62 2.11,12.17 1.85,15.82 1.70,19.45 1.79,23.02 2.12,26.34 2.98,29.28 6.80,32.01 18.11,33.36 34.39,33.40 50.71,33.45 67.02,33.49 83.33,33.54 99.65,33.58 115.96,33.62 132.27,33.67 148.59,33.71 164.90,33.76 181.21,33.80 197.53,33.85 213.84,33.89 230.15,33.91 246.46,33.89 262.78,33.84 279.09,33.78 295.39,33.73 311.66,33.68 327.80,33.63 343.45,33.58 357.15,33.53 363.40,33.52 363.73,33.60 364.02,33.76 364.28,33.98 364.47,34.26 364.59,34.58 364.63,34.91 364.59,35.25 364.47,35.56 364.28,35.84 364.02,36.06 363.73,36.22 363.40,36.30 Z" fill="#1d1d1d" stroke="#1d1d1d" stroke-width="2" pointer-events="none"/></g><text font-size="28px" font-family="Caveat Brush" font-weight="normal" line-height="28px" letter-spacing="-0.03em" text-align="center" dominant-baseline="mathematical" alignment-baseline="mathematical" text-anchor="middle" transform="translate(183.915, -0.9800000000000004)" fill="#1d1d1d" transform-origin="center center"><tspan y="14px" x="41">Bare OS
</tspan></text></g><g text-align="center" text-anchor="middle" transform="translate(312.81, 274.76) rotate(0.00, 108.82, 86.25)"><g id="71492723-436f-41a7-1bb1-a39bedc2efb5_svg" class="tl-centered-g"><g pointer-events="none" stroke="#1d1d1d" stroke-width="4.23" stroke-linecap="round"><line x1="2.11" y1="2.11" x2="215.52" y2="2.11" stroke-dasharray="6.47 6.86" stroke-dashoffset="3.23"/><line x1="215.52" y1="2.11" x2="215.52" y2="170.38" stroke-dasharray="6.47 7.55" stroke-dashoffset="3.23"/><line x1="215.52" y1="170.38" x2="2.11" y2="170.38" stroke-dasharray="6.47 6.86" stroke-dashoffset="3.23"/><line x1="2.11" y1="170.38" x2="2.11" y2="2.11" stroke-dasharray="6.47 7.55" stroke-dashoffset="3.23"/></g></g><text font-size="28px" font-family="Caveat Brush" font-weight="normal" line-height="28px" letter-spacing="-0.03em" text-align="center" dominant-baseline="mathematical" alignment-baseline="mathematical" text-anchor="middle" transform="translate(12.319999999999993, 67.25)" fill="#1d1d1d" transform-origin="center center"><tspan y="14px" x="96.5">Image - Spec + deps
</tspan></text></g><g text-align="center" text-anchor="middle" transform="translate(618.47, 19.01) rotate(0.00, 108.82, 86.25)"><g id="c2793da2-a957-49b6-15fb-7f0da6a3d95b_svg" class="tl-centered-g"><g pointer-events="none" stroke="#1d1d1d" stroke-width="4.23" stroke-linecap="round"><line x1="2.11" y1="2.11" x2="215.52" y2="2.11" stroke-dasharray="0.03 6.63" stroke-dashoffset="0"/><line x1="215.52" y1="2.11" x2="215.52" y2="170.38" stroke-dasharray="0.03 6.69" stroke-dashoffset="0"/><line x1="215.52" y1="170.38" x2="2.11" y2="170.38" stroke-dasharray="0.03 6.63" stroke-dashoffset="0"/><line x1="2.11" y1="170.38" x2="2.11" y2="2.11" stroke-dasharray="0.03 6.69" stroke-dashoffset="0"/></g></g><text font-size="28px" font-family="Caveat Brush" font-weight="normal" line-height="28px" letter-spacing="-0.03em" text-align="center" dominant-baseline="mathematical" alignment-baseline="mathematical" text-anchor="middle" transform="translate(59.31999999999999, 67.25)" fill="#1d1d1d" transform-origin="center center"><tspan y="14px" x="49.5">Container
</tspan></text></g><g text-align="center" text-anchor="middle" transform="translate(618.47, 208.57) rotate(0.00, 108.82, 86.25)"><g id="b81af0ca-e1b3-40ab-2452-6e1b3d183e8c_svg" class="tl-centered-g"><g pointer-events="none" stroke="#1d1d1d" stroke-width="4.23" stroke-linecap="round"><line x1="2.11" y1="2.11" x2="215.52" y2="2.11" stroke-dasharray="0.03 6.63" stroke-dashoffset="0"/><line x1="215.52" y1="2.11" x2="215.52" y2="170.38" stroke-dasharray="0.03 6.69" stroke-dashoffset="0"/><line x1="215.52" y1="170.38" x2="2.11" y2="170.38" stroke-dasharray="0.03 6.63" stroke-dashoffset="0"/><line x1="2.11" y1="170.38" x2="2.11" y2="2.11" stroke-dasharray="0.03 6.69" stroke-dashoffset="0"/></g></g><text font-size="28px" font-family="Caveat Brush" font-weight="normal" line-height="28px" letter-spacing="-0.03em" text-align="center" dominant-baseline="mathematical" alignment-baseline="mathematical" text-anchor="middle" transform="translate(59.31999999999999, 67.25)" fill="#1d1d1d" transform-origin="center center"><tspan y="14px" x="49.5">Container
</tspan></text></g><g text-align="center" text-anchor="middle" transform="translate(368.73, 16.00) rotate(0.00, 108.82, 86.25)"><g id="c59175ac-1e7d-4b19-0562-a8cd1f8b971a_svg" class="tl-centered-g"><g pointer-events="none" stroke="#1d1d1d" stroke-width="4.23" stroke-linecap="round"><line x1="2.11" y1="2.11" x2="215.52" y2="2.11" stroke-dasharray="0.03 6.63" stroke-dashoffset="0"/><line x1="215.52" y1="2.11" x2="215.52" y2="170.38" stroke-dasharray="0.03 6.69" stroke-dashoffset="0"/><line x1="215.52" y1="170.38" x2="2.11" y2="170.38" stroke-dasharray="0.03 6.63" stroke-dashoffset="0"/><line x1="2.11" y1="170.38" x2="2.11" y2="2.11" stroke-dasharray="0.03 6.69" stroke-dashoffset="0"/></g></g><text font-size="28px" font-family="Caveat Brush" font-weight="normal" line-height="28px" letter-spacing="-0.03em" text-align="center" dominant-baseline="mathematical" alignment-baseline="mathematical" text-anchor="middle" transform="translate(59.31999999999999, 67.25)" fill="#1d1d1d" transform-origin="center center"><tspan y="14px" x="49.5">Container
</tspan></text></g><g id="0cc86692-6278-44f6-1dec-f26dbc391103_svg" class="tl-centered-g" transform="translate(440.68, 204.50) rotate(0.00, 17.09, 33.63)"><defs><mask id="0cc86692-6278-44f6-1dec-f26dbc391103_clip"><rect x="-100" y="-100" width="234.19" height="267.26" fill="white"/><rect x="17.09" y="33.63" width="0" height="0" rx="2.35" ry="2.35" fill="black" opacity="1"/></mask></defs><g pointer-events="none" opacity="1" mask=""><path d="M-0.84,66.83 Q7.54,50.49 11.72,42.32 T20.08,25.97 28.43,9.62 32.68,1.34 32.85,1.17 33.07,1.07 33.31,1.04 33.55,1.08 33.76,1.20 33.92,1.39 34.01,1.61 34.03,1.85 33.97,2.09 33.84,2.29 33.65,2.44 33.42,2.52 33.18,2.52 32.94,2.45 32.75,2.31 32.61,2.11 32.54,1.88 32.55,1.63 32.64,1.41 32.79,1.22 32.99,1.09 33.23,1.04 33.47,1.06 33.69,1.16 33.87,1.32 33.99,1.53 34.03,1.77 34.00,2.01 33.96,2.13 29.81,10.32 21.52,26.70 13.24,43.09 4.97,59.49 0.78,67.78 0.63,67.96 0.45,68.09 0.24,68.17 0.01,68.20 -0.21,68.18 -0.43,68.10 -0.61,67.97 -0.77,67.80 -0.87,67.60 -0.93,67.39 -0.93,67.16 -0.88,66.94 Z" fill="#1d1d1d" stroke="#1d1d1d" stroke-width="2.11" stroke-dasharray="none" stroke-dashoffset="none" stroke-linecap="round" stroke-linejoin="round" pointer-events="stroke"/><g><path d="M 20.77,8.727005645019316 L 34.19,0 35.04,15.97726747286532" fill="none" stroke="#1d1d1d" stroke-width="4.23" stroke-linecap="round" stroke-linejoin="round" pointer-events="none"/></g></g></g><g id="65e0a7b3-002d-4003-3068-cf505dbd691a_svg" class="tl-centered-g" transform="translate(524.71, 207.51) rotate(0.00, 40.19, 33.63)"><defs><mask id="65e0a7b3-002d-4003-3068-cf505dbd691a_clip"><rect x="-100" y="-100" width="280.38" height="267.25" fill="white"/><rect x="40.19" y="33.62" width="0" height="0" rx="3.27" ry="3.27" fill="black" opacity="1"/></mask></defs><g pointer-events="none" opacity="1" mask=""><path d="M-0.63,66.50 Q19.13,50.06 29.00,41.83 T48.74,25.37 68.47,8.91 78.44,0.61 78.68,0.51 78.94,0.50 79.18,0.57 79.39,0.72 79.54,0.92 79.62,1.16 79.62,1.42 79.54,1.66 79.38,1.86 79.17,2.00 78.93,2.07 78.67,2.05 78.43,1.96 78.24,1.79 78.11,1.57 78.06,1.32 78.09,1.07 78.20,0.84 78.37,0.65 78.60,0.53 78.85,0.50 79.10,0.54 79.33,0.66 79.50,0.85 79.61,1.08 79.63,1.33 79.58,1.58 79.44,1.80 79.36,1.90 69.51,10.15 49.82,26.67 30.14,43.19 10.46,59.73 0.53,68.06 0.32,68.17 0.09,68.21 -0.14,68.21 -0.37,68.15 -0.57,68.03 -0.74,67.87 -0.87,67.68 -0.95,67.46 -0.97,67.22 -0.93,66.99 -0.84,66.78 -0.71,66.59 Z" fill="#1d1d1d" stroke="#1d1d1d" stroke-width="2.11" stroke-dasharray="none" stroke-dashoffset="none" stroke-linecap="round" stroke-linejoin="round" pointer-events="stroke"/><g><path d="M 64.61,2.755698435197238 L 80.38,0 74.88,15.027193326407971" fill="none" stroke="#1d1d1d" stroke-width="4.23" stroke-linecap="round" stroke-linejoin="round" pointer-events="none"/></g></g></g><g id="6ee8bbd9-2cf0-4018-2164-24a785f8d1ae_svg" class="tl-centered-g" transform="translate(530.45, 342.13) rotate(0.00, 36.01, 3.76)"><defs><mask id="6ee8bbd9-2cf0-4018-2164-24a785f8d1ae_clip"><rect x="-100" y="-100" width="272.02" height="207.52" fill="white"/><rect x="36.01" y="3.76" width="0" height="0" rx="2.26" ry="2.26" fill="black" opacity="1"/></mask></defs><g pointer-events="none" opacity="1" mask=""><path d="M-0.09,6.65 Q17.42,4.90 26.18,4.01 T43.69,2.24 61.21,0.45 70.07,-0.45 70.28,-0.40 70.46,-0.29 70.59,-0.13 70.67,0.07 70.68,0.28 70.62,0.48 70.50,0.66 70.33,0.79 70.13,0.85 69.92,0.85 69.72,0.78 69.55,0.66 69.44,0.48 69.38,0.28 69.39,0.06 69.47,-0.13 69.61,-0.29 69.79,-0.40 70.00,-0.45 70.21,-0.42 70.40,-0.33 70.55,-0.19 70.65,0.00 70.68,0.21 70.65,0.42 70.55,0.61 70.40,0.75 70.20,0.84 70.10,0.87 61.35,1.80 43.84,3.66 26.34,5.54 8.84,7.44 -0.01,8.39 -0.22,8.36 -0.42,8.29 -0.59,8.16 -0.73,8.00 -0.82,7.82 -0.87,7.61 -0.86,7.40 -0.81,7.20 -0.71,7.01 -0.57,6.86 -0.39,6.74 -0.19,6.67 Z" fill="#1d1d1d" stroke="#1d1d1d" stroke-width="2.11" stroke-dasharray="none" stroke-dashoffset="none" stroke-linecap="round" stroke-linejoin="round" pointer-events="stroke"/><g><path d="M 57.40,-6.517743415634594 L 72.02,0 59.06,9.395742690731712" fill="none" stroke="#1d1d1d" stroke-width="4.23" stroke-linecap="round" stroke-linejoin="round" pointer-events="none"/></g></g></g></svg>