<svg xmlns="http://www.w3.org/2000/svg" viewBox="0 0 870.74 758.22" width="870.74" height="758.22" style="background-color: white;"><defs><style>@import url('https://fonts.googleapis.com/css2?family=Caveat+Brush&amp;family=Source+Code+Pro&amp;family=Source+Sans+Pro&amp;family=Crimson+Pro&amp;display=block');</style></defs><g id="a66970bf-93e4-4394-1282-c757447196b9_svg" class="tl-centered-g" transform="translate(16.00, 70.00) rotate(0.00, 202.00, 270.50)"><path d="M404.18,88.06 Q404.13,100.41 404.11,108.15 T404.06,124.05 404.02,140.44 403.97,156.97 403.92,173.52 403.88,190.09 403.83,206.66 403.78,223.23 403.74,239.79 403.69,256.36 403.69,272.93 403.72,289.50 403.75,306.07 403.79,322.64 403.82,339.21 403.86,355.78 403.89,372.34 403.93,388.91 403.96,405.48 404.00,422.05 404.03,438.62 404.07,455.19 404.10,471.76 404.13,488.33 404.17,504.89 404.20,521.49 402.35,533.93 393.65,539.23 378.95,540.62 362.97,540.90 346.66,540.95 330.26,540.94 313.84,540.92 297.41,540.90 280.99,540.88 264.56,540.85 248.13,540.83 231.70,540.80 215.27,540.78 198.85,540.81 182.42,540.89 165.99,540.98 149.56,541.06 133.14,541.15 116.71,541.23 100.28,541.31 83.85,541.40 67.43,541.48 51.00,541.57 34.57,541.65 18.12,541.73 5.76,539.90 0.49,531.14 -0.85,516.30 -1.08,500.14 -1.09,483.66 -1.04,467.08 -0.98,450.49 -0.91,433.88 -0.84,417.28 -0.77,400.67 -0.70,384.07 -0.64,367.46 -0.57,350.86 -0.50,334.25 -0.43,317.65 -0.36,301.04 -0.29,284.43 -0.26,267.83 -0.28,251.22 -0.29,234.62 -0.30,218.01 -0.32,201.41 -0.33,184.80 -0.34,168.20 -0.35,151.59 -0.37,134.98 -0.38,118.38 -0.39,101.77 -0.40,85.17 -0.42,68.56 -0.43,51.96 -0.44,35.35 -0.45,18.72 1.42,6.25 10.11,0.97 24.78,-0.38 40.74,-0.61 57.02,-0.61 73.39,-0.56 89.78,-0.49 106.18,-0.42 122.58,-0.35 138.97,-0.27 155.37,-0.20 171.77,-0.13 188.17,-0.05 204.57,-0.03 220.97,-0.07 237.37,-0.10 253.76,-0.14 270.16,-0.17 286.56,-0.21 302.96,-0.24 319.36,-0.28 335.76,-0.31 352.16,-0.35 368.55,-0.38 384.98,-0.41 397.32,1.44 402.58,10.20 403.94,25.01 404.20,41.13 404.23,57.58 404.20,74.12 404.16,90.68 404.11,107.25 404.06,123.81 404.02,140.38 403.97,156.95 403.92,173.52 403.88,190.09 403.83,206.66 403.78,223.23 403.74,239.79 403.69,256.36 403.69,272.93 403.72,292.34 403.71,303.63 403.60,303.96 403.39,304.23 403.10,304.42 402.77,304.52 402.42,304.50 402.10,304.37 401.84,304.15 401.66,303.85 401.59,303.51 401.63,303.17 401.77,302.86 402.01,302.61 402.31,302.44 402.65,302.39 402.99,302.45 403.30,302.61 403.54,302.86 403.68,303.17 403.72,303.51 403.64,303.85 403.47,304.15 403.20,304.37 402.88,304.50 402.54,304.52 402.20,304.42 401.92,304.23 401.71,303.96 401.60,303.63 401.57,303.46 401.60,292.34 401.64,272.93 401.65,256.36 401.62,239.79 401.58,223.23 401.55,206.66 401.51,190.09 401.48,173.52 401.44,156.95 401.41,140.38 401.37,123.81 401.34,107.25 401.30,90.68 401.26,74.12 401.21,57.59 401.10,41.19 400.78,25.28 399.86,11.30 396.14,3.97 384.92,2.82 368.55,2.75 352.15,2.68 335.75,2.61 319.35,2.53 302.96,2.46 286.56,2.39 270.16,2.31 253.76,2.24 237.36,2.17 220.96,2.09 204.57,2.02 188.17,2.00 171.77,2.04 155.37,2.07 138.97,2.11 122.57,2.14 106.18,2.18 89.78,2.21 73.39,2.25 57.03,2.31 40.80,2.42 25.05,2.74 11.22,3.67 3.95,7.43 2.80,18.77 2.74,35.36 2.67,51.96 2.60,68.57 2.53,85.17 2.46,101.78 2.39,118.38 2.32,134.99 2.26,151.59 2.19,168.20 2.12,184.80 2.05,201.41 1.98,218.02 1.91,234.62 1.84,251.23 1.78,267.83 1.75,284.44 1.76,301.04 1.77,317.65 1.79,334.25 1.80,350.86 1.81,367.47 1.82,384.07 1.84,400.68 1.85,417.28 1.86,433.89 1.88,450.49 1.89,467.08 1.93,483.65 2.01,500.09 2.31,516.04 3.22,530.04 6.93,537.38 18.16,538.49 34.57,538.51 50.99,538.54 67.42,538.56 83.85,538.59 100.28,538.61 116.70,538.63 133.13,538.66 149.56,538.68 165.99,538.71 182.42,538.73 198.84,538.76 215.27,538.73 231.70,538.64 248.13,538.56 264.55,538.47 280.98,538.39 297.41,538.30 313.83,538.22 330.25,538.13 346.64,538.03 362.90,537.87 378.68,537.50 392.53,536.53 399.81,532.76 400.95,521.44 400.99,504.89 401.04,488.32 401.08,471.76 401.13,455.19 401.18,438.62 401.22,422.05 401.27,405.48 401.32,388.91 401.36,372.34 401.41,355.78 401.46,339.21 401.50,322.64 401.55,306.07 401.60,289.50 401.64,272.93 401.65,256.36 401.62,239.79 401.58,223.23 401.55,206.66 401.51,190.09 401.48,173.52 401.44,156.97 401.41,140.44 401.37,124.04 401.34,108.15 401.30,94.23 401.31,87.89 401.39,87.55 401.55,87.25 401.78,86.99 402.07,86.79 402.39,86.67 402.73,86.63 403.08,86.67 403.40,86.79 403.69,86.99 403.91,87.25 404.08,87.55 404.16,87.89 Z" fill="#1d1d1d" stroke="#1d1d1d" stroke-width="2" pointer-events="none"/></g><g id="05725649-54c6-4e06-383c-3ddd203b6ef2_svg" class="tl-centered-g" transform="translate(36.00, 357.00) rotate(0.00, 182.00, 115.50)"><path d="M-0.26,140.79 Q-0.10,128.19 -0.07,120.28 T-0.05,104.06 -0.08,87.32 -0.11,70.44 -0.14,53.54 -0.16,36.63 -0.19,19.69 1.68,7.02 10.55,1.68 25.59,0.29 41.98,0.02 58.70,-0.02 75.52,-0.01 92.35,0.02 109.20,0.05 126.04,0.09 142.89,0.12 159.73,0.16 176.58,0.16 193.43,0.10 210.27,0.01 227.12,-0.08 243.96,-0.17 260.81,-0.26 277.65,-0.34 294.50,-0.43 311.34,-0.52 328.19,-0.61 345.06,-0.70 357.68,1.13 363.01,10.06 364.36,25.26 364.59,41.83 364.59,58.74 364.54,75.75 364.47,92.78 364.45,109.81 364.53,126.85 364.66,143.89 364.78,160.93 364.91,177.97 365.04,195.01 365.16,212.07 363.35,224.82 354.48,230.16 339.38,231.49 322.94,231.69 306.15,231.65 289.28,231.56 272.38,231.46 255.47,231.35 238.57,231.24 221.66,231.13 204.75,231.02 187.85,230.94 170.94,230.92 154.03,230.93 137.12,230.95 120.22,230.96 103.31,230.97 86.40,230.98 69.49,231.00 52.58,231.01 35.68,231.02 18.75,231.03 6.08,229.15 0.79,220.26 -0.47,205.15 -0.61,188.70 -0.51,171.91 -0.36,155.03 -0.19,138.12 -0.07,121.21 -0.05,104.29 -0.07,84.48 -0.04,72.93 0.09,72.55 0.34,72.23 0.67,72.01 1.05,71.91 1.45,71.93 1.82,72.08 2.12,72.34 2.33,72.68 2.41,73.07 2.37,73.47 2.20,73.83 1.92,74.12 1.57,74.30 1.17,74.37 0.78,74.30 0.43,74.11 0.16,73.82 -0.01,73.46 -0.05,73.06 0.04,72.67 0.24,72.33 0.55,72.07 0.92,71.93 1.32,71.91 1.70,72.02 2.03,72.24 2.27,72.56 2.40,72.94 2.43,73.14 2.33,84.49 2.15,104.30 2.03,121.22 2.01,138.13 2.04,155.04 2.09,171.91 2.19,188.66 2.51,204.91 3.46,219.18 7.27,226.64 18.80,227.80 35.69,227.91 52.59,228.02 69.50,228.13 86.41,228.24 103.32,228.35 120.22,228.46 137.13,228.57 154.04,228.68 170.94,228.80 187.85,228.87 204.76,228.89 221.67,228.88 238.57,228.87 255.48,228.85 272.39,228.84 289.28,228.82 306.15,228.79 322.89,228.70 339.12,228.39 353.39,227.46 360.84,223.65 361.97,212.03 362.04,195.01 362.11,177.97 362.18,160.93 362.26,143.90 362.33,126.86 362.35,109.82 362.27,92.78 362.14,75.75 361.99,58.76 361.79,41.88 361.37,25.52 360.34,11.15 356.51,3.65 345.02,2.53 328.20,2.50 311.35,2.47 294.50,2.43 277.66,2.40 260.81,2.36 243.97,2.33 227.12,2.29 210.28,2.26 193.43,2.23 176.58,2.22 159.74,2.28 142.89,2.37 126.05,2.46 109.20,2.55 92.36,2.64 75.52,2.73 58.72,2.84 42.04,3.01 25.86,3.39 11.65,4.37 4.21,8.20 3.00,19.75 2.84,36.64 2.66,53.55 2.49,70.46 2.32,87.33 2.15,104.07 2.03,120.29 2.02,134.50 2.03,140.94 1.96,141.21 1.83,141.45 1.65,141.65 1.42,141.81 1.16,141.91 0.89,141.94 0.61,141.90 0.36,141.81 0.13,141.65 -0.05,141.44 -0.18,141.20 -0.24,140.93 Z" fill="#1d1d1d" stroke="#1d1d1d" stroke-width="2" pointer-events="none"/></g><g id="408e6138-da46-40d6-137d-5c6b390d02a2_svg" class="tl-centered-g" transform="translate(34.00, 256.00) rotate(0.00, 92.50, 40.50)"><path d="M185.91,56.23 Q186.12,63.77 186.21,68.55 T184.44,76.56 175.28,80.64 159.58,81.58 142.51,81.63 125.04,81.52 107.47,81.37 89.87,81.33 72.27,81.42 54.67,81.51 37.06,81.60 19.44,81.69 6.38,79.93 1.01,73.64 -0.30,64.23 -0.42,54.30 -0.39,44.28 -0.49,34.22 -0.67,24.16 -0.83,14.05 0.95,5.67 10.11,1.48 25.78,0.48 42.84,0.38 60.28,0.45 77.83,0.57 95.40,0.57 112.97,0.44 130.55,0.31 148.13,0.18 165.73,0.06 178.77,1.79 184.16,8.09 185.49,17.55 185.65,27.53 185.66,37.61 185.79,47.71 186.01,59.56 186.08,66.58 185.94,67.02 185.65,67.40 185.27,67.66 184.82,67.79 184.35,67.76 183.92,67.59 183.56,67.29 183.32,66.89 183.22,66.43 183.27,65.97 183.46,65.54 183.78,65.20 184.19,64.98 184.65,64.91 185.12,64.98 185.53,65.20 185.85,65.54 186.05,65.96 186.10,66.43 186.00,66.88 185.76,67.28 185.41,67.59 184.97,67.76 184.51,67.79 184.05,67.66 183.67,67.40 183.38,67.03 183.23,66.59 183.19,66.35 183.27,59.57 183.42,47.72 183.47,37.63 183.28,27.61 182.79,17.94 181.69,9.45 177.69,4.47 165.69,3.22 148.13,3.09 130.55,2.96 112.97,2.83 95.40,2.70 77.83,2.70 60.29,2.84 42.88,3.03 25.96,3.38 11.15,4.15 3.47,6.92 2.26,14.15 2.07,24.16 1.88,34.22 1.79,44.26 1.95,54.22 2.41,63.84 3.48,72.29 7.47,77.26 19.49,78.53 37.07,78.69 54.67,78.86 72.28,79.03 89.88,79.20 107.47,79.24 125.04,79.13 142.48,78.98 159.41,78.68 174.25,77.96 181.93,75.30 183.12,68.45 183.27,60.00 183.37,56.08 183.45,55.79 183.59,55.51 183.79,55.28 184.04,55.11 184.33,55.00 184.63,54.96 184.94,55.00 185.22,55.11 185.47,55.28 185.68,55.51 185.82,55.78 185.89,56.08 Z" fill="#1d1d1d" stroke="#1d1d1d" stroke-width="2" pointer-events="none"/></g><g id="fcf365f4-fd75-4c7d-23a2-8e72bced0b28_svg" class="tl-centered-g" transform="translate(30.00, 160.00) rotate(0.00, 43.00, 39.00)"><path d="M86.59,53.23 Q86.88,60.43 87.02,65.01 T85.37,72.75 78.71,76.74 68.53,77.66 57.75,77.69 46.81,77.64 35.82,77.74 24.82,77.92 13.78,78.09 4.83,76.36 0.58,70.17 -0.30,61.02 -0.20,51.43 -0.01,41.74 0.04,32.00 0.01,22.26 -0.00,12.47 1.83,4.32 8.42,0.25 18.37,-0.63 28.87,-0.61 39.52,-0.49 50.22,-0.52 60.92,-0.64 71.68,-0.74 80.42,1.02 84.73,7.18 85.85,16.27 86.04,25.80 86.14,35.43 86.38,45.09 86.73,56.41 86.88,63.13 86.74,63.58 86.46,63.95 86.07,64.22 85.63,64.35 85.16,64.34 84.72,64.17 84.36,63.87 84.11,63.47 84.01,63.02 84.05,62.55 84.24,62.13 84.56,61.78 84.97,61.56 85.43,61.47 85.89,61.54 86.31,61.76 86.63,62.09 86.84,62.51 86.89,62.98 86.80,63.44 86.56,63.84 86.21,64.15 85.78,64.33 85.31,64.36 84.86,64.24 84.47,63.98 84.18,63.61 84.03,63.17 83.99,62.94 83.99,56.45 84.01,45.12 83.95,35.47 83.67,25.89 83.14,16.61 82.20,8.49 79.24,3.68 71.57,2.36 60.91,2.11 50.20,1.85 39.52,1.69 28.91,1.76 18.62,2.09 9.61,2.82 4.43,5.56 3.08,12.61 2.75,22.31 2.41,32.04 2.17,41.76 2.17,51.41 2.43,60.75 3.13,68.93 6.02,73.74 13.87,75.00 24.83,75.18 35.82,75.37 46.80,75.46 57.70,75.32 68.27,74.93 77.52,74.17 82.77,71.53 83.93,64.94 83.99,56.87 84.05,53.11 84.12,52.81 84.26,52.54 84.46,52.31 84.71,52.13 84.99,52.02 85.30,51.98 85.60,52.01 85.89,52.11 86.14,52.28 86.35,52.51 86.50,52.78 86.57,53.08 Z" fill="#1d1d1d" stroke="#1d1d1d" stroke-width="2" pointer-events="none"/></g><g id="6dc26a69-bfd2-4ac1-2ac7-999a227b8de7_svg" class="tl-centered-g" transform="translate(35.00, 91.00) rotate(0.00, 42.50, 26.50)"><path d="M-0.04,16.99 Q-0.08,12.29 -0.05,9.28 T1.80,3.53 8.36,0.14 18.21,-0.51 28.59,-0.38 39.11,-0.19 49.69,-0.16 60.28,-0.20 70.91,-0.24 79.55,1.51 83.76,6.30 84.77,12.43 84.82,18.58 84.76,24.68 84.84,30.77 85.00,36.86 85.14,43.03 83.40,48.92 76.81,52.44 66.82,53.28 56.28,53.34 45.59,53.36 34.84,53.53 24.09,53.78 13.28,54.02 4.51,52.38 0.32,47.53 -0.54,41.24 -0.42,34.90 -0.19,28.60 -0.10,22.30 -0.06,14.92 0.02,10.45 0.18,10.02 0.48,9.65 0.87,9.40 1.33,9.29 1.79,9.33 2.22,9.52 2.57,9.83 2.80,10.24 2.88,10.70 2.82,11.16 2.61,11.58 2.28,11.91 1.86,12.12 1.39,12.18 0.93,12.09 0.53,11.85 0.22,11.51 0.04,11.08 -0.00,10.61 0.11,10.16 0.37,9.76 0.73,9.47 1.17,9.31 1.64,9.30 2.09,9.44 2.46,9.71 2.74,10.10 2.87,10.54 2.90,10.78 2.68,15.00 2.27,22.37 1.99,28.65 1.95,34.87 2.16,40.86 2.79,46.10 5.64,49.66 13.35,50.92 24.07,51.03 34.83,51.15 45.56,51.17 56.23,50.97 66.58,50.55 75.63,49.83 80.81,47.61 82.07,42.87 82.26,36.85 82.47,30.76 82.57,24.69 82.45,18.66 82.08,12.88 81.31,7.80 78.41,4.27 70.79,2.85 60.24,2.54 49.66,2.21 39.09,1.99 28.60,1.99 18.41,2.22 9.50,2.76 4.37,4.89 3.02,9.51 2.69,14.73 2.50,17.22 2.41,17.52 2.26,17.78 2.05,18.01 1.80,18.17 1.51,18.27 1.20,18.30 0.90,18.25 0.62,18.14 0.37,17.95 0.17,17.72 0.04,17.44 -0.02,17.14 Z" fill="#1d1d1d" stroke="#1d1d1d" stroke-width="2" pointer-events="none"/></g><text font-size="28px" font-family="Caveat Brush" font-weight="normal" line-height="28px" letter-spacing="-0.03em" text-align="center" dominant-baseline="mathematical" alignment-baseline="mathematical" text-anchor="middle" fill="#1d1d1d" transform="translate(81.50, 450.00) rotate(0.00, 126.50, 19.00)"><tspan y="14px" x="126.5">OS - e.g. Windows / Ubuntu
</tspan></text><text font-size="28px" font-family="Caveat Brush" font-weight="normal" line-height="28px" letter-spacing="-0.03em" text-align="center" dominant-baseline="mathematical" alignment-baseline="mathematical" text-anchor="middle" fill="#1d1d1d" transform="translate(47.00, 278.00) rotate(0.00, 56.00, 19.00)"><tspan y="14px" x="56">Web Server
</tspan></text><text font-size="28px" font-family="Caveat Brush" font-weight="normal" line-height="28px" letter-spacing="-0.03em" text-align="center" dominant-baseline="mathematical" alignment-baseline="mathematical" text-anchor="middle" fill="#1d1d1d" transform="translate(51.00, 185.00) rotate(0.00, 27.00, 19.00)"><tspan y="14px" x="27">Deps
</tspan></text><text font-size="28px" font-family="Caveat Brush" font-weight="normal" line-height="28px" letter-spacing="-0.03em" text-align="center" dominant-baseline="mathematical" alignment-baseline="mathematical" text-anchor="middle" fill="#1d1d1d" transform="translate(58.50, 101.00) rotate(0.00, 22.50, 19.00)"><tspan y="14px" x="22.5">App
</tspan></text><text font-size="28px" font-family="Caveat Brush" font-weight="normal" line-height="28px" letter-spacing="-0.03em" text-align="center" dominant-baseline="mathematical" alignment-baseline="mathematical" text-anchor="middle" fill="#1d1d1d" transform="translate(177.00, 16.00) rotate(0.00, 20.00, 19.00)"><tspan y="14px" x="20">VM
</tspan></text><g id="5cad4745-5eec-4fa8-0bda-d0305efdc921_svg" class="tl-centered-g" transform="translate(135.00, 91.00) rotate(0.00, 42.50, 26.50)"><path d="M85.02,35.90 Q85.13,40.60 85.15,43.61 T83.35,49.36 76.81,52.82 66.96,53.60 56.58,53.61 46.05,53.58 35.47,53.69 24.88,53.89 14.25,54.08 5.59,52.42 1.38,47.63 0.39,41.44 0.36,35.22 0.44,29.04 0.37,22.87 0.23,16.70 0.11,10.45 1.86,4.52 8.41,0.96 18.31,0.06 28.76,-0.07 39.35,-0.16 50.00,-0.39 60.65,-0.71 71.35,-1.02 80.06,0.57 84.27,5.40 85.21,11.68 85.17,18.02 85.02,24.31 85.02,30.60 85.08,37.98 85.06,42.43 84.90,42.87 84.61,43.24 84.22,43.50 83.77,43.61 83.30,43.58 82.87,43.40 82.52,43.09 82.28,42.69 82.19,42.23 82.25,41.76 82.45,41.34 82.78,41.01 83.20,40.80 83.66,40.73 84.12,40.81 84.53,41.04 84.84,41.39 85.03,41.81 85.08,42.28 84.97,42.73 84.72,43.13 84.36,43.43 83.92,43.59 83.45,43.61 83.00,43.48 82.62,43.21 82.35,42.83 82.20,42.38 82.17,42.15 82.34,37.93 82.65,30.57 82.84,24.29 82.80,18.07 82.51,12.09 81.81,6.86 78.95,3.30 71.30,2.08 60.68,2.03 50.03,1.98 39.39,2.03 28.83,2.30 18.58,2.79 9.61,3.56 4.46,5.82 3.18,10.62 2.97,16.71 2.75,22.88 2.62,29.04 2.73,35.14 3.08,41.00 3.83,46.14 6.71,49.67 14.33,50.99 24.88,51.15 35.47,51.32 46.04,51.39 56.54,51.24 66.73,50.87 75.64,50.20 80.76,48.03 82.08,43.41 82.33,38.20 82.49,35.71 82.57,35.41 82.71,35.14 82.92,34.92 83.18,34.75 83.46,34.64 83.77,34.61 84.07,34.66 84.36,34.77 84.60,34.95 84.80,35.18 84.94,35.45 85.01,35.75 Z" fill="#1d1d1d" stroke="#1d1d1d" stroke-width="2" pointer-events="none"/></g><text font-size="28px" font-family="Caveat Brush" font-weight="normal" line-height="28px" letter-spacing="-0.03em" text-align="center" dominant-baseline="mathematical" alignment-baseline="mathematical" text-anchor="middle" fill="#1d1d1d" transform="translate(158.50, 101.00) rotate(0.00, 22.50, 19.00)"><tspan y="14px" x="22.5">App
</tspan></text><g id="4c71facb-0e05-418e-200d-e87b732be131_svg" class="tl-centered-g" transform="translate(235.00, 91.00) rotate(0.00, 42.50, 26.50)"><path d="M26.26,52.99 Q18.22,53.21 13.13,53.31 T4.79,51.69 0.62,46.95 -0.43,40.87 -0.55,34.76 -0.57,28.71 -0.73,22.66 -0.97,16.61 -1.19,10.48 0.52,4.61 7.11,1.12 17.13,0.35 27.70,0.37 38.44,0.43 49.23,0.35 60.02,0.18 70.87,0.03 79.65,1.69 83.92,6.41 85.00,12.44 85.12,18.49 85.13,24.48 85.28,30.46 85.51,36.45 85.71,42.51 84.01,48.34 77.42,51.83 67.41,52.65 56.85,52.70 46.12,52.70 35.35,52.86 22.71,53.10 15.24,53.19 14.79,53.04 14.42,52.76 14.16,52.37 14.03,51.92 14.05,51.45 14.22,51.02 14.52,50.66 14.92,50.42 15.38,50.32 15.85,50.36 16.27,50.56 16.61,50.88 16.83,51.29 16.91,51.75 16.84,52.21 16.62,52.63 16.28,52.95 15.86,53.15 15.39,53.20 14.94,53.10 14.53,52.86 14.23,52.51 14.06,52.08 14.03,51.61 14.15,51.16 14.41,50.77 14.78,50.48 15.23,50.33 15.46,50.29 22.70,50.36 35.33,50.48 46.10,50.52 56.79,50.33 67.17,49.93 76.25,49.23 81.42,47.03 82.65,42.37 82.77,36.47 82.91,30.49 82.94,24.52 82.75,18.60 82.32,12.93 81.49,7.95 78.54,4.47 70.78,3.12 60.02,2.93 49.22,2.72 38.45,2.62 27.74,2.74 17.35,3.08 8.27,3.73 3.09,5.91 1.88,10.61 1.77,16.58 1.64,22.63 1.62,28.67 1.82,34.65 2.26,40.39 3.07,45.43 5.91,48.92 13.21,50.22 22.23,50.36 26.40,50.45 26.70,50.52 26.97,50.66 27.20,50.87 27.38,51.12 27.49,51.40 27.53,51.71 27.49,52.01 27.38,52.30 27.21,52.55 26.98,52.75 26.71,52.90 26.41,52.97 Z" fill="#1d1d1d" stroke="#1d1d1d" stroke-width="2" pointer-events="none"/></g><text font-size="28px" font-family="Caveat Brush" font-weight="normal" line-height="28px" letter-spacing="-0.03em" text-align="center" dominant-baseline="mathematical" alignment-baseline="mathematical" text-anchor="middle" fill="#1d1d1d" transform="translate(258.50, 101.00) rotate(0.00, 22.50, 19.00)"><tspan y="14px" x="22.5">App
</tspan></text><g id="256c2ca8-9c8a-4382-1a50-9f72aa464c1b_svg" class="tl-centered-g" transform="translate(136.00, 160.00) rotate(0.00, 43.00, 39.00)"><path d="M26.48,77.79 Q18.38,77.94 13.24,78.00 T4.82,76.25 0.63,70.09 -0.41,61.00 -0.53,51.48 -0.56,41.84 -0.73,32.18 -0.99,22.51 -1.23,12.79 0.47,4.66 7.09,0.60 17.19,-0.25 27.86,-0.18 38.69,-0.04 49.57,-0.03 60.46,-0.11 71.40,-0.17 80.26,1.61 84.56,7.76 85.62,16.80 85.74,26.28 85.76,35.85 85.93,45.45 86.17,55.06 86.40,64.73 84.70,72.82 78.08,76.88 68.00,77.78 57.33,77.78 46.51,77.69 35.65,77.74 22.90,77.87 15.37,77.89 14.93,77.73 14.55,77.45 14.29,77.06 14.17,76.61 14.20,76.14 14.37,75.71 14.68,75.36 15.08,75.12 15.54,75.02 16.00,75.07 16.42,75.27 16.76,75.59 16.98,76.01 17.05,76.47 16.98,76.93 16.75,77.34 16.41,77.66 15.99,77.86 15.52,77.90 15.07,77.80 14.67,77.56 14.37,77.20 14.20,76.76 14.17,76.30 14.30,75.85 14.56,75.46 14.94,75.18 15.38,75.03 15.62,75.00 22.92,75.13 35.65,75.37 46.51,75.50 57.29,75.41 67.74,75.06 76.89,74.31 82.10,71.60 83.31,64.64 83.43,55.08 83.55,45.47 83.58,35.87 83.37,26.35 82.91,17.13 82.03,9.06 79.07,4.27 71.28,2.92 60.43,2.64 49.55,2.34 38.68,2.15 27.89,2.19 17.43,2.48 8.27,3.18 3.06,5.87 1.86,12.87 1.76,22.49 1.64,32.16 1.63,41.82 1.84,51.40 2.31,60.68 3.17,68.80 6.02,73.60 13.35,74.90 22.44,75.12 26.65,75.26 26.95,75.33 27.22,75.47 27.44,75.68 27.62,75.93 27.72,76.22 27.76,76.52 27.72,76.83 27.61,77.11 27.44,77.36 27.21,77.56 26.93,77.70 26.64,77.78 Z" fill="#1d1d1d" stroke="#1d1d1d" stroke-width="2" pointer-events="none"/></g><text font-size="28px" font-family="Caveat Brush" font-weight="normal" line-height="28px" letter-spacing="-0.03em" text-align="center" dominant-baseline="mathematical" alignment-baseline="mathematical" text-anchor="middle" fill="#1d1d1d" transform="translate(157.00, 185.00) rotate(0.00, 27.00, 19.00)"><tspan y="14px" x="27">Deps
</tspan></text><g id="b3352b5e-5695-4b1a-1352-f332edfb155a_svg" class="tl-centered-g" transform="translate(235.00, 160.00) rotate(0.00, 43.00, 39.00)"><path d="M-0.49,24.28 Q-0.66,17.07 -0.73,12.50 T1.01,4.78 7.60,0.81 17.61,-0.08 28.18,-0.08 38.90,-0.01 49.67,-0.07 60.45,-0.22 71.27,-0.36 80.07,1.37 84.41,7.49 85.59,16.51 85.84,25.96 86.00,35.51 86.30,45.10 86.69,54.68 87.06,64.33 85.45,72.41 78.81,76.52 68.64,77.49 57.87,77.57 46.93,77.57 35.95,77.71 24.96,77.93 13.92,78.14 4.98,76.44 0.68,70.29 -0.32,61.22 -0.37,51.69 -0.32,42.07 -0.41,32.42 -0.58,21.10 -0.62,14.37 -0.47,13.93 -0.19,13.56 0.20,13.30 0.65,13.17 1.12,13.20 1.55,13.37 1.91,13.68 2.15,14.08 2.25,14.54 2.20,15.00 2.00,15.42 1.68,15.76 1.26,15.98 0.80,16.06 0.34,15.98 -0.07,15.76 -0.39,15.42 -0.59,14.99 -0.64,14.53 -0.54,14.07 -0.29,13.67 0.06,13.37 0.50,13.20 0.96,13.17 1.42,13.30 1.80,13.56 2.08,13.94 2.23,14.38 2.27,14.61 2.17,21.10 1.96,32.42 1.87,42.06 2.00,51.64 2.39,60.90 3.21,69.02 6.15,73.80 14.00,75.04 24.95,75.19 35.94,75.33 46.91,75.38 57.81,75.20 68.37,74.77 77.61,73.95 82.84,71.22 83.97,64.29 83.94,54.74 83.93,45.15 83.81,35.57 83.47,26.07 82.88,16.87 81.89,8.82 78.90,4.04 71.18,2.73 60.44,2.52 49.66,2.30 38.90,2.18 28.22,2.29 17.86,2.64 8.80,3.38 3.61,6.01 2.35,12.61 2.17,20.68 2.05,24.43 1.97,24.73 1.83,25.00 1.63,25.23 1.38,25.40 1.09,25.51 0.79,25.55 0.48,25.51 0.20,25.40 -0.06,25.23 -0.26,25.00 -0.40,24.73 -0.47,24.43 Z" fill="#1d1d1d" stroke="#1d1d1d" stroke-width="2" pointer-events="none"/></g><text font-size="28px" font-family="Caveat Brush" font-weight="normal" line-height="28px" letter-spacing="-0.03em" text-align="center" dominant-baseline="mathematical" alignment-baseline="mathematical" text-anchor="middle" fill="#1d1d1d" transform="translate(256.00, 185.00) rotate(0.00, 27.00, 19.00)"><tspan y="14px" x="27">Deps
</tspan></text><g id="93762c88-6780-4340-0915-bebf76a1b5ea_svg" class="tl-centered-g" transform="translate(231.00, 256.00) rotate(0.00, 68.00, 40.50)"><path d="M136.18,55.40 Q136.38,62.84 136.46,67.55 T134.70,75.48 125.41,79.57 109.41,80.59 91.99,80.75 74.17,80.84 56.25,81.07 38.30,81.39 20.32,81.70 7.03,80.07 1.58,73.77 0.22,64.27 0.05,54.23 0.04,44.10 -0.11,33.94 -0.33,23.77 -0.53,13.54 1.23,5.09 10.54,0.93 26.54,0.04 43.97,0.06 61.81,0.17 79.75,0.13 97.72,0.01 115.71,-0.10 129.00,1.65 134.44,7.90 135.78,17.25 135.94,27.10 135.94,37.04 136.07,47.00 136.28,58.69 136.34,65.62 136.20,66.06 135.91,66.43 135.53,66.69 135.08,66.82 134.61,66.80 134.17,66.62 133.82,66.32 133.58,65.92 133.47,65.46 133.52,65.00 133.72,64.58 134.04,64.24 134.45,64.02 134.92,63.94 135.38,64.01 135.79,64.23 136.11,64.57 136.31,65.00 136.36,65.46 136.26,65.92 136.02,66.32 135.66,66.62 135.23,66.79 134.76,66.82 134.31,66.70 133.93,66.43 133.64,66.06 133.49,65.62 133.45,65.39 133.53,58.69 133.70,47.01 133.76,37.06 133.57,27.19 133.08,17.65 131.98,9.28 127.92,4.33 115.66,3.01 97.71,2.76 79.74,2.50 61.81,2.35 44.00,2.43 26.70,2.78 11.55,3.55 3.74,6.34 2.56,13.63 2.42,23.76 2.27,33.93 2.22,44.08 2.42,54.15 2.93,63.87 4.04,72.41 8.10,77.39 20.34,78.59 38.28,78.64 56.23,78.70 74.15,78.65 91.94,78.38 109.22,77.85 124.36,76.95 132.18,74.22 133.38,67.46 133.54,59.13 133.64,55.26 133.72,54.96 133.86,54.69 134.06,54.46 134.31,54.28 134.60,54.17 134.90,54.14 135.20,54.17 135.49,54.28 135.74,54.45 135.95,54.68 136.09,54.95 136.16,55.25 Z" fill="#1d1d1d" stroke="#1d1d1d" stroke-width="2" pointer-events="none"/></g><text font-size="28px" font-family="Caveat Brush" font-weight="normal" line-height="28px" letter-spacing="-0.03em" text-align="center" dominant-baseline="mathematical" alignment-baseline="mathematical" text-anchor="middle" fill="#1d1d1d" transform="translate(244.00, 278.00) rotate(0.00, 56.00, 19.00)"><tspan y="14px" x="56">Web Server
</tspan></text><g id="c8c19e8f-8b81-46e4-2621-06f06dc8fcb4_svg" class="tl-centered-g" transform="translate(446.00, 70.00) rotate(0.00, 202.00, 270.50)"><path d="M-0.08,452.37 Q-0.07,440.01 -0.07,432.25 T-0.06,416.34 -0.06,399.92 -0.06,383.37 -0.06,366.79 -0.06,350.20 -0.06,333.61 -0.05,317.02 -0.05,300.43 -0.05,283.84 -0.09,267.25 -0.17,250.66 -0.25,234.07 -0.33,217.48 -0.41,200.89 -0.49,184.30 -0.57,167.71 -0.65,151.12 -0.73,134.53 -0.81,117.94 -0.89,101.34 -0.97,84.75 -1.05,68.16 -1.13,51.57 -1.21,34.98 -1.28,18.37 0.54,5.90 9.25,0.61 23.96,-0.75 39.97,-0.99 56.31,-1.01 72.73,-0.97 89.18,-0.91 105.63,-0.85 122.08,-0.80 138.54,-0.74 154.99,-0.68 171.44,-0.62 187.90,-0.56 204.35,-0.55 220.80,-0.60 237.26,-0.65 253.71,-0.70 270.17,-0.75 286.62,-0.80 303.07,-0.85 319.53,-0.90 335.98,-0.95 352.44,-1.00 368.89,-1.05 385.37,-1.09 397.74,0.76 403.02,9.53 404.38,24.38 404.64,40.54 404.67,57.04 404.65,73.62 404.61,90.23 404.56,106.85 404.52,123.46 404.47,140.08 404.43,156.69 404.38,173.31 404.34,189.92 404.29,206.54 404.25,223.15 404.21,239.77 404.16,256.39 404.16,273.00 404.19,289.62 404.23,306.23 404.27,322.85 404.30,339.46 404.34,356.08 404.38,372.69 404.41,389.31 404.45,405.93 404.49,422.54 404.52,439.16 404.56,455.77 404.60,472.39 404.63,489.00 404.67,505.62 404.70,522.26 402.85,534.74 394.16,540.02 379.49,541.35 363.53,541.56 347.25,541.54 330.89,541.47 314.50,541.38 298.11,541.29 281.71,541.20 265.31,541.11 248.92,541.02 232.52,540.92 216.13,540.83 199.73,540.79 183.33,540.81 166.94,540.83 150.54,540.84 134.14,540.86 117.75,540.87 101.35,540.89 84.95,540.91 68.56,540.92 52.16,540.94 35.77,540.95 19.34,540.97 7.01,539.10 1.73,530.34 0.33,515.50 0.03,499.36 -0.04,482.89 -0.06,466.33 -0.06,449.75 -0.06,433.16 -0.06,416.57 -0.06,399.98 -0.06,383.39 -0.06,366.80 -0.06,350.20 -0.06,333.61 -0.05,317.02 -0.05,300.43 -0.05,283.84 -0.09,267.25 -0.18,247.82 -0.20,236.51 -0.09,236.19 0.12,235.91 0.41,235.72 0.74,235.62 1.08,235.64 1.41,235.77 1.67,235.99 1.85,236.29 1.92,236.62 1.89,236.97 1.74,237.28 1.51,237.53 1.20,237.69 0.86,237.75 0.52,237.70 0.21,237.53 -0.02,237.28 -0.17,236.97 -0.21,236.63 -0.13,236.29 0.04,235.99 0.31,235.77 0.63,235.64 0.97,235.62 1.30,235.71 1.59,235.91 1.80,236.18 1.91,236.51 1.94,236.68 1.94,247.82 1.95,267.25 1.99,283.84 2.07,300.43 2.15,317.02 2.23,333.61 2.31,350.20 2.39,366.79 2.47,383.38 2.55,399.97 2.63,416.56 2.71,433.15 2.79,449.74 2.87,466.32 2.97,482.87 3.13,499.30 3.49,515.23 4.44,529.22 8.18,536.57 19.40,537.73 35.77,537.82 52.17,537.91 68.56,538.00 84.96,538.09 101.36,538.19 117.75,538.28 134.15,538.37 150.55,538.46 166.94,538.56 183.34,538.65 199.73,538.74 216.13,538.78 232.53,538.76 248.92,538.75 265.32,538.73 281.72,538.71 298.11,538.70 314.51,538.68 330.89,538.66 347.25,538.62 363.48,538.53 379.23,538.23 393.05,537.31 400.32,533.56 401.45,522.21 401.49,505.62 401.54,489.00 401.58,472.39 401.63,455.77 401.67,439.16 401.72,422.54 401.76,405.93 401.80,389.31 401.85,372.69 401.89,356.08 401.94,339.46 401.98,322.85 402.03,306.23 402.07,289.62 402.12,273.00 402.12,256.38 402.08,239.77 402.05,223.15 402.01,206.54 401.97,189.92 401.94,173.31 401.90,156.69 401.86,140.08 401.83,123.46 401.79,106.84 401.75,90.23 401.71,73.63 401.66,57.05 401.54,40.60 401.22,24.65 400.30,10.63 396.57,3.28 385.32,2.14 368.89,2.09 352.43,2.03 335.98,1.97 319.53,1.91 303.07,1.85 286.62,1.79 270.17,1.74 253.71,1.68 237.26,1.62 220.80,1.56 204.35,1.50 187.90,1.49 171.44,1.54 154.99,1.59 138.53,1.64 122.08,1.69 105.63,1.74 89.18,1.79 72.73,1.85 56.32,1.92 40.03,2.04 24.23,2.38 10.35,3.32 3.07,7.07 1.97,18.41 1.97,34.97 1.97,51.57 1.97,68.16 1.97,84.75 1.96,101.34 1.96,117.93 1.96,134.52 1.96,151.11 1.96,167.70 1.96,184.29 1.96,200.88 1.95,217.47 1.95,234.06 1.95,250.65 1.95,267.25 1.99,283.84 2.07,300.43 2.15,317.02 2.23,333.61 2.31,350.20 2.39,366.79 2.47,383.36 2.55,399.91 2.63,416.33 2.70,432.24 2.78,446.18 2.79,452.53 2.71,452.87 2.55,453.18 2.32,453.44 2.04,453.63 1.71,453.76 1.37,453.80 1.03,453.76 0.70,453.64 0.42,453.44 0.19,453.18 0.02,452.87 -0.06,452.54 Z" fill="#1d1d1d" stroke="#1d1d1d" stroke-width="2" pointer-events="none"/></g><g id="19824d1f-a3f0-4aff-2810-81c2594edcba_svg" class="tl-centered-g" transform="translate(466.00, 357.00) rotate(0.00, 182.00, 115.50)"><path d="M-0.58,140.68 Q-0.51,127.98 -0.53,120.02 T-0.61,103.67 -0.75,86.80 -0.89,69.80 -1.03,52.77 -1.17,35.73 -1.31,18.66 0.49,5.91 9.37,0.55 24.46,-0.82 40.90,-1.06 57.69,-1.07 74.56,-1.03 91.46,-0.97 108.36,-0.90 125.27,-0.84 142.18,-0.78 159.08,-0.71 175.99,-0.68 192.90,-0.71 209.80,-0.77 226.71,-0.83 243.62,-0.88 260.52,-0.94 277.43,-1.00 294.34,-1.06 311.24,-1.12 328.15,-1.18 345.08,-1.24 357.74,0.61 363.07,9.53 364.41,24.73 364.62,41.27 364.61,58.17 364.54,75.16 364.46,92.17 364.43,109.19 364.49,126.21 364.60,143.23 364.72,160.25 364.83,177.27 364.94,194.29 365.05,211.33 363.24,224.06 354.37,229.43 339.29,230.81 322.86,231.06 306.09,231.09 289.23,231.06 272.35,231.02 255.46,230.97 238.57,230.92 221.68,230.87 204.79,230.82 187.90,230.80 171.01,230.84 154.12,230.92 137.23,230.99 120.34,231.06 103.45,231.14 86.56,231.21 69.67,231.29 52.78,231.36 35.89,231.43 18.97,231.50 6.32,229.67 0.99,220.74 -0.37,205.53 -0.62,188.96 -0.63,172.04 -0.59,155.03 -0.53,137.99 -0.52,120.95 -0.61,103.90 -0.76,83.94 -0.80,72.31 -0.68,71.93 -0.44,71.61 -0.11,71.38 0.28,71.28 0.68,71.30 1.05,71.44 1.35,71.70 1.56,72.04 1.64,72.43 1.60,72.83 1.44,73.19 1.16,73.48 0.81,73.67 0.42,73.74 0.02,73.67 -0.33,73.49 -0.61,73.20 -0.77,72.84 -0.82,72.44 -0.73,72.05 -0.53,71.71 -0.22,71.45 0.15,71.30 0.54,71.28 0.93,71.38 1.26,71.61 1.50,71.92 1.63,72.30 1.66,72.50 1.64,83.94 1.59,103.90 1.58,120.94 1.67,137.98 1.81,155.02 1.97,172.02 2.18,188.90 2.61,205.27 3.65,219.64 7.49,227.15 19.02,228.27 35.88,228.32 52.77,228.37 69.66,228.42 86.56,228.47 103.45,228.52 120.34,228.57 137.23,228.62 154.12,228.67 171.01,228.72 187.90,228.74 204.79,228.69 221.68,228.62 238.57,228.55 255.46,228.47 272.35,228.40 289.23,228.32 306.08,228.22 322.80,228.07 339.02,227.71 353.27,226.73 360.72,222.89 361.86,211.29 361.94,194.29 362.03,177.27 362.12,160.25 362.20,143.23 362.29,126.21 362.33,109.19 362.26,92.17 362.14,75.16 362.01,58.18 361.82,41.33 361.42,24.98 360.40,10.63 356.57,3.13 345.03,1.99 328.15,1.93 311.24,1.87 294.34,1.80 277.43,1.74 260.52,1.68 243.62,1.61 226.71,1.55 209.80,1.48 192.90,1.42 175.99,1.38 159.08,1.41 142.18,1.47 125.27,1.53 108.36,1.59 91.46,1.65 74.56,1.72 57.70,1.79 40.96,1.93 24.72,2.28 10.46,3.25 3.01,7.08 1.88,18.70 1.83,35.72 1.77,52.76 1.71,69.80 1.65,86.80 1.59,103.66 1.57,120.01 1.66,134.33 1.70,140.81 1.64,141.08 1.51,141.33 1.33,141.53 1.10,141.69 0.85,141.79 0.57,141.82 0.30,141.79 0.04,141.69 -0.18,141.54 -0.37,141.33 -0.50,141.09 -0.56,140.82 Z" fill="#1d1d1d" stroke="#1d1d1d" stroke-width="2" pointer-events="none"/></g><g id="c5189e10-258a-40c8-3edb-c2a8b2501e3d_svg" class="tl-centered-g" transform="translate(464.00, 256.00) rotate(0.00, 177.40, 40.50)"><path d="M268.29,81.71 Q256.05,81.65 248.36,81.62 T232.60,81.57 216.33,81.51 199.94,81.46 183.52,81.44 167.09,81.47 150.65,81.54 134.22,81.61 117.78,81.68 101.35,81.75 84.91,81.82 68.48,81.89 52.04,81.96 35.61,82.03 19.15,82.09 6.82,80.33 1.61,73.97 0.33,64.39 0.17,54.28 0.15,44.07 0.01,33.82 -0.22,23.56 -0.43,13.26 1.32,4.75 10.03,0.51 24.73,-0.54 40.68,-0.67 56.97,-0.63 73.35,-0.54 89.76,-0.44 106.17,-0.33 122.59,-0.23 139.00,-0.13 155.42,-0.02 171.83,0.05 188.25,0.06 204.66,0.04 221.08,0.02 237.49,0.00 253.91,-0.02 270.32,-0.04 286.74,-0.06 303.15,-0.08 319.57,-0.10 336.01,-0.11 348.32,1.68 353.54,7.98 354.88,17.44 355.10,27.41 355.17,37.48 355.38,47.58 355.66,57.69 355.93,67.84 354.22,76.26 345.51,80.50 330.81,81.59 314.84,81.76 298.53,81.77 282.12,81.73 265.70,81.68 249.26,81.62 232.83,81.57 216.39,81.51 199.96,81.46 183.52,81.44 167.09,81.47 147.84,81.54 136.63,81.55 136.28,81.43 135.98,81.21 135.78,80.90 135.68,80.55 135.70,80.18 135.83,79.84 136.07,79.56 136.39,79.37 136.75,79.29 137.11,79.33 137.45,79.48 137.72,79.74 137.89,80.06 137.95,80.42 137.89,80.79 137.72,81.11 137.45,81.37 137.11,81.52 136.75,81.56 136.39,81.48 136.07,81.29 135.83,81.01 135.70,80.67 135.68,80.30 135.77,79.95 135.98,79.64 136.28,79.42 136.62,79.30 136.81,79.27 147.84,79.30 167.09,79.35 183.52,79.37 199.96,79.34 216.39,79.27 232.83,79.20 249.26,79.13 265.69,79.06 282.12,78.98 298.52,78.90 314.79,78.77 330.60,78.48 344.44,77.77 351.69,75.03 352.84,67.78 352.92,57.71 353.01,47.60 352.99,37.51 352.73,27.51 352.18,17.83 351.07,9.34 347.22,4.36 335.95,3.11 319.56,3.02 303.15,2.91 286.73,2.81 270.32,2.70 253.90,2.60 237.49,2.50 221.07,2.39 204.66,2.29 188.24,2.18 171.83,2.11 155.41,2.10 138.99,2.12 122.58,2.14 106.16,2.16 89.75,2.18 73.35,2.21 56.97,2.24 40.71,2.32 24.93,2.57 11.10,3.24 3.85,5.99 2.66,13.34 2.52,23.55 2.38,33.81 2.34,44.04 2.54,54.20 3.03,64.02 4.10,72.63 7.92,77.66 19.19,78.86 35.61,78.91 52.04,78.97 68.48,79.02 84.91,79.08 101.35,79.13 117.78,79.19 134.22,79.24 150.65,79.30 167.09,79.35 183.52,79.37 199.94,79.34 216.33,79.27 232.60,79.20 248.36,79.13 262.17,79.06 268.45,79.05 268.76,79.12 269.05,79.27 269.29,79.48 269.47,79.75 269.58,80.05 269.62,80.37 269.58,80.68 269.47,80.98 269.29,81.25 269.05,81.46 268.76,81.61 268.45,81.69 Z" fill="#1d1d1d" stroke="#1d1d1d" stroke-width="2" pointer-events="none"/></g><g id="23c6ee45-87f9-45bd-3291-e4d9e938dfbd_svg" class="tl-centered-g" transform="translate(460.00, 160.00) rotate(0.00, 179.26, 39.00)"><path d="M358.82,53.21 Q358.92,60.50 358.94,65.12 T357.10,72.92 348.29,76.99 333.42,78.03 317.28,78.19 300.79,78.19 284.20,78.14 267.59,78.09 250.97,78.03 234.36,77.98 217.74,77.92 201.12,77.86 184.50,77.83 167.88,77.87 151.27,77.94 134.65,78.00 118.03,78.07 101.41,78.13 84.79,78.20 68.17,78.27 51.56,78.33 34.94,78.40 18.30,78.46 5.85,76.69 0.69,70.57 -0.44,61.53 -0.41,52.04 -0.23,42.46 -0.18,32.86 -0.21,23.25 -0.23,13.59 1.64,5.50 10.45,1.34 25.32,0.23 41.45,0.01 57.92,-0.05 74.50,-0.06 91.09,-0.06 107.69,-0.06 124.30,-0.06 140.90,-0.06 157.51,-0.06 174.11,-0.09 190.71,-0.18 207.32,-0.31 223.92,-0.43 240.53,-0.55 257.13,-0.67 273.73,-0.80 290.34,-0.92 306.94,-1.04 323.55,-1.17 340.17,-1.29 352.61,0.45 357.79,6.62 358.96,15.80 358.97,25.46 358.83,35.20 358.82,44.97 358.87,56.43 358.85,63.23 358.69,63.67 358.41,64.04 358.02,64.29 357.56,64.41 357.10,64.38 356.66,64.20 356.31,63.90 356.08,63.49 355.98,63.04 356.04,62.57 356.24,62.15 356.56,61.81 356.98,61.60 357.44,61.53 357.90,61.61 358.31,61.84 358.63,62.18 358.82,62.61 358.87,63.07 358.76,63.53 358.51,63.92 358.15,64.22 357.72,64.39 357.25,64.41 356.80,64.28 356.42,64.01 356.14,63.64 356.00,63.19 355.96,62.96 356.13,56.39 356.45,44.95 356.64,35.19 356.60,25.51 356.25,16.15 355.30,7.95 351.52,3.11 340.14,1.94 323.56,1.95 306.95,1.95 290.35,1.95 273.74,1.94 257.14,1.94 240.54,1.94 223.93,1.94 207.33,1.94 190.72,1.94 174.12,1.97 157.51,2.06 140.91,2.19 124.31,2.31 107.70,2.43 91.10,2.56 74.51,2.68 57.95,2.82 41.50,3.00 25.53,3.34 11.53,4.07 4.18,6.77 2.86,13.73 2.53,23.29 2.19,32.90 1.95,42.48 1.96,52.00 2.27,61.18 3.17,69.25 6.95,74.03 18.34,75.23 34.94,75.29 51.56,75.34 68.17,75.40 84.79,75.46 101.41,75.52 118.03,75.57 134.65,75.63 151.26,75.69 167.88,75.75 184.50,75.77 201.12,75.74 217.74,75.67 234.36,75.60 250.97,75.54 267.59,75.47 284.20,75.40 300.78,75.32 317.24,75.20 333.22,74.92 347.23,74.25 354.58,71.64 355.86,64.99 356.13,56.82 356.29,53.02 356.36,52.73 356.51,52.46 356.71,52.23 356.97,52.06 357.26,51.96 357.56,51.92 357.86,51.96 358.15,52.08 358.40,52.25 358.60,52.48 358.74,52.76 358.81,53.05 Z" fill="#1d1d1d" stroke="#1d1d1d" stroke-width="2" pointer-events="none"/></g><g id="173da8dc-a074-4dc4-37fa-ef841163f296_svg" class="tl-centered-g" transform="translate(465.00, 91.00) rotate(0.00, 177.72, 26.50)"><path d="M87.69,-0.20 Q99.90,-0.15 107.56,-0.13 T123.29,-0.09 139.51,-0.04 155.86,0.00 172.24,0.01 188.63,-0.04 205.02,-0.12 221.41,-0.20 237.80,-0.28 254.20,-0.36 270.59,-0.44 286.98,-0.52 303.37,-0.60 319.76,-0.68 336.18,-0.76 348.43,0.91 353.62,5.66 354.99,11.87 355.21,18.14 355.27,24.34 355.46,30.52 355.72,36.70 355.96,42.95 354.25,48.92 345.53,52.50 330.80,53.41 314.83,53.53 298.51,53.52 282.09,53.47 265.65,53.42 249.20,53.36 232.75,53.30 216.30,53.24 199.85,53.18 183.40,53.15 166.96,53.18 150.51,53.25 134.06,53.31 117.61,53.37 101.16,53.44 84.71,53.50 68.26,53.57 51.81,53.63 35.36,53.69 18.89,53.75 6.60,52.06 1.46,47.31 0.23,41.14 0.18,34.91 0.29,28.77 0.28,22.64 0.18,16.51 0.11,10.30 1.94,4.39 10.66,0.82 25.35,-0.09 41.26,-0.24 57.53,-0.24 73.89,-0.21 90.28,-0.17 106.67,-0.13 123.06,-0.09 139.45,-0.04 155.84,0.00 172.23,0.01 188.63,-0.04 207.82,-0.12 219.01,-0.14 219.36,-0.02 219.65,0.21 219.86,0.51 219.96,0.87 219.94,1.23 219.80,1.58 219.57,1.86 219.25,2.05 218.89,2.13 218.52,2.09 218.19,1.93 217.92,1.68 217.75,1.35 217.69,0.99 217.75,0.63 217.92,0.30 218.19,0.05 218.52,-0.11 218.89,-0.15 219.25,-0.07 219.56,0.12 219.80,0.40 219.94,0.74 219.96,1.11 219.86,1.47 219.65,1.77 219.36,2.00 219.01,2.11 218.83,2.14 207.83,2.13 188.63,2.09 172.24,2.07 155.84,2.12 139.45,2.21 123.06,2.29 106.67,2.37 90.28,2.45 73.90,2.53 57.54,2.63 41.30,2.75 25.53,3.02 11.72,3.59 4.46,5.74 3.18,10.49 2.92,16.55 2.65,22.67 2.48,28.78 2.55,34.83 2.90,40.61 3.81,45.69 7.60,49.24 18.93,50.53 35.36,50.58 51.81,50.64 68.26,50.70 84.71,50.76 101.16,50.82 117.61,50.88 134.06,50.94 150.51,51.00 166.96,51.06 183.40,51.09 199.85,51.06 216.30,50.99 232.75,50.93 249.20,50.86 265.65,50.80 282.09,50.73 298.50,50.66 314.79,50.54 330.63,50.30 344.48,49.74 351.73,47.60 352.90,42.84 352.98,36.73 353.09,30.55 353.09,24.39 352.85,18.29 352.34,12.46 351.29,7.34 347.44,3.75 336.14,2.47 319.77,2.43 303.38,2.39 286.98,2.34 270.59,2.30 254.20,2.26 237.81,2.22 221.41,2.17 205.02,2.13 188.63,2.09 172.24,2.07 155.86,2.12 139.51,2.21 123.29,2.29 107.57,2.37 93.80,2.44 87.53,2.46 87.22,2.39 86.93,2.24 86.69,2.02 86.51,1.76 86.40,1.46 86.36,1.14 86.40,0.82 86.51,0.52 86.69,0.26 86.93,0.05 87.22,-0.10 87.53,-0.18 Z" fill="#1d1d1d" stroke="#1d1d1d" stroke-width="2" pointer-events="none"/></g><text font-size="28px" font-family="Caveat Brush" font-weight="normal" line-height="28px" letter-spacing="-0.03em" text-align="center" dominant-baseline="mathematical" alignment-baseline="mathematical" text-anchor="middle" fill="#1d1d1d" transform="translate(511.50, 450.00) rotate(0.00, 126.50, 19.00)"><tspan y="14px" x="126.5">OS - e.g. Windows / Ubuntu
</tspan></text><text font-size="28px" font-family="Caveat Brush" font-weight="normal" line-height="28px" letter-spacing="-0.03em" text-align="center" dominant-baseline="mathematical" alignment-baseline="mathematical" text-anchor="middle" fill="#1d1d1d" transform="translate(477.00, 278.00) rotate(0.00, 56.00, 19.00)"><tspan y="14px" x="56">Web Server
</tspan></text><text font-size="28px" font-family="Caveat Brush" font-weight="normal" line-height="28px" letter-spacing="-0.03em" text-align="center" dominant-baseline="mathematical" alignment-baseline="mathematical" text-anchor="middle" fill="#1d1d1d" transform="translate(481.00, 185.00) rotate(0.00, 27.00, 19.00)"><tspan y="14px" x="27">Deps
</tspan></text><text font-size="28px" font-family="Caveat Brush" font-weight="normal" line-height="28px" letter-spacing="-0.03em" text-align="center" dominant-baseline="mathematical" alignment-baseline="mathematical" text-anchor="middle" fill="#1d1d1d" transform="translate(488.50, 101.00) rotate(0.00, 22.50, 19.00)"><tspan y="14px" x="22.5">App
</tspan></text><text font-size="28px" font-family="Caveat Brush" font-weight="normal" line-height="28px" letter-spacing="-0.03em" text-align="center" dominant-baseline="mathematical" alignment-baseline="mathematical" text-anchor="middle" fill="#1d1d1d" transform="translate(607.00, 16.00) rotate(0.00, 20.00, 19.00)"><tspan y="14px" x="20">VM
</tspan></text><text font-size="28px" font-family="Caveat Brush" font-weight="normal" line-height="28px" letter-spacing="-0.03em" text-align="center" dominant-baseline="mathematical" alignment-baseline="mathematical" text-anchor="middle" fill="#1d1d1d" transform="translate(368.24, 666.21) rotate(0.00, 54.00, 19.00)"><tspan y="14px" x="54">Hypervisor
</tspan></text><g id="4cf65cee-1fda-4070-1f51-7d7aa18ecc96_svg" class="tl-centered-g" transform="translate(17.30, 638.50) rotate(0.00, 418.72, 51.86)"><path d="M837.12,72.52 Q837.31,82.50 837.40,88.81 T835.63,98.73 827.00,103.37 812.48,104.56 796.71,104.77 780.62,104.79 764.44,104.75 748.23,104.71 732.02,104.66 715.81,104.61 699.60,104.56 683.39,104.51 667.18,104.46 650.97,104.41 634.75,104.36 618.54,104.31 602.33,104.26 586.12,104.21 569.91,104.16 553.70,104.11 537.48,104.06 521.27,104.01 505.06,103.97 488.85,103.92 472.64,103.87 456.42,103.82 440.21,103.77 424.00,103.73 407.79,103.72 391.58,103.72 375.37,103.72 359.15,103.72 342.94,103.72 326.73,103.72 310.52,103.73 294.31,103.73 278.09,103.73 261.88,103.73 245.67,103.73 229.46,103.73 213.25,103.73 197.04,103.74 180.82,103.74 164.61,103.74 148.40,103.74 132.19,103.74 115.98,103.74 99.76,103.74 83.55,103.74 67.34,103.75 51.13,103.75 34.92,103.75 18.68,103.74 6.47,101.90 1.29,94.36 0.00,82.21 -0.17,69.16 -0.22,55.89 -0.39,42.56 -0.65,29.21 -0.89,15.82 0.84,5.37 9.46,0.60 23.98,-0.64 39.76,-0.86 55.86,-0.89 72.05,-0.86 88.26,-0.82 104.48,-0.78 120.70,-0.74 136.92,-0.69 153.14,-0.65 169.36,-0.61 185.58,-0.56 201.80,-0.52 218.02,-0.48 234.24,-0.43 250.46,-0.39 266.68,-0.35 282.89,-0.30 299.11,-0.26 315.33,-0.22 331.55,-0.17 347.77,-0.13 363.99,-0.09 380.21,-0.04 396.43,0.00 412.65,0.03 428.87,0.04 445.09,0.03 461.31,0.02 477.53,0.01 493.75,0.01 509.97,-0.00 526.19,-0.01 542.41,-0.02 558.63,-0.02 574.85,-0.03 591.07,-0.04 607.29,-0.05 623.51,-0.05 639.73,-0.06 655.95,-0.07 672.17,-0.08 688.39,-0.08 704.60,-0.09 720.82,-0.10 737.04,-0.11 753.26,-0.11 769.48,-0.12 785.70,-0.13 801.92,-0.14 818.17,-0.14 830.38,1.70 835.55,9.27 836.78,21.45 836.90,34.54 836.89,47.86 837.01,61.24 837.21,76.93 837.27,86.16 837.12,86.60 836.84,86.97 836.45,87.23 836.00,87.36 835.54,87.33 835.10,87.16 834.75,86.86 834.50,86.46 834.40,86.00 834.45,85.54 834.65,85.11 834.97,84.77 835.38,84.55 835.85,84.48 836.31,84.55 836.72,84.77 837.04,85.11 837.24,85.54 837.29,86.00 837.19,86.46 836.95,86.86 836.59,87.16 836.16,87.33 835.69,87.36 835.24,87.23 834.85,86.97 834.57,86.60 834.42,86.16 834.38,85.92 834.47,76.93 834.64,61.24 834.71,47.87 834.53,34.60 834.06,21.74 833.01,10.45 829.23,4.29 818.11,3.13 801.92,3.09 785.70,3.04 769.48,3.00 753.26,2.96 737.04,2.91 720.82,2.87 704.60,2.83 688.38,2.78 672.16,2.74 655.94,2.70 639.72,2.65 623.50,2.61 607.28,2.57 591.06,2.52 574.85,2.48 558.63,2.44 542.41,2.39 526.19,2.35 509.97,2.31 493.75,2.26 477.53,2.22 461.31,2.17 445.09,2.13 428.87,2.09 412.65,2.06 396.43,2.05 380.21,2.06 363.99,2.07 347.77,2.07 331.55,2.08 315.33,2.09 299.11,2.10 282.89,2.10 266.67,2.11 250.45,2.12 234.23,2.13 218.01,2.13 201.79,2.14 185.57,2.15 169.35,2.16 153.13,2.17 136.92,2.17 120.70,2.18 104.48,2.19 88.26,2.20 72.05,2.21 55.87,2.23 39.81,2.31 24.23,2.57 10.55,3.35 3.37,6.57 2.21,15.87 2.09,29.19 1.98,42.54 1.97,55.87 2.20,69.09 2.72,81.91 3.82,93.16 7.62,99.31 18.73,100.48 34.92,100.52 51.13,100.57 67.35,100.62 83.56,100.67 99.77,100.72 115.98,100.77 132.19,100.82 148.40,100.87 164.62,100.92 180.83,100.97 197.04,101.02 213.25,101.07 229.46,101.12 245.67,101.17 261.89,101.22 278.10,101.27 294.31,101.32 310.52,101.37 326.73,101.42 342.95,101.47 359.16,101.52 375.37,101.57 391.58,101.62 407.79,101.67 424.00,101.70 440.22,101.72 456.43,101.71 472.64,101.71 488.85,101.71 505.06,101.71 521.27,101.71 537.49,101.71 553.70,101.71 569.91,101.70 586.12,101.70 602.33,101.70 618.55,101.70 634.76,101.70 650.97,101.70 667.18,101.70 683.39,101.70 699.61,101.69 715.82,101.69 732.03,101.69 748.24,101.69 764.44,101.68 780.61,101.67 796.67,101.60 812.24,101.35 825.91,100.61 833.10,97.52 834.30,88.74 834.47,77.51 834.58,72.37 834.65,72.07 834.79,71.80 835.00,71.57 835.25,71.40 835.53,71.29 835.84,71.25 836.14,71.29 836.43,71.40 836.68,71.57 836.88,71.80 837.03,72.07 837.10,72.37 Z" fill="#1d1d1d" stroke="#1d1d1d" stroke-width="2" pointer-events="none"/></g></svg>